<?xml version="1.0" encoding="utf-8"?>
<!-- Generator: Adobe Illustrator 21.1.0, SVG Export Plug-In . SVG Version: 6.00 Build 0)  -->
<svg version="1.1" id="Layer_1" xmlns="http://www.w3.org/2000/svg" xmlns:xlink="http://www.w3.org/1999/xlink" x="0px" y="0px"
	 viewBox="0 0 117 42" style="enable-background:new 0 0 117 42;" xml:space="preserve">
<style type="text/css">
	.st0{enable-background:new    ;}
	.st1{fill:#FFFFFF;}
	.st2{fill:#8F0014;}
	.st3{fill:#F70023;}
</style>
<g id="pervclips_copy_1_" class="st0">
	<g id="pervclips_copy">
		<g>
			<path class="st1" d="M46.1,10c-0.1,0-0.3,0-0.4,0c-0.2,0-0.3,0-0.5,0c-0.7,0-1.3,0.2-1.9,0.5v-0.3h-1H41h-1V30h1h1.4h1v-3.7
				c0.6,0.3,1.2,0.5,1.9,0.5c0.2,0,0.3,0,0.5,0c0.1,0,0.3,0,0.4,0c1,0,1.7-0.3,2.2-0.9s0.8-1.4,0.8-2.4V13.3c0-1-0.3-1.8-0.8-2.4
				C47.9,10.3,47.1,10,46.1,10z M45.8,23.3c0,0.7-0.3,1.2-1,1.3c-0.6-0.1-1.1-0.4-1.6-0.8V13c0.5-0.4,1-0.7,1.6-0.8
				c0.6,0.1,1,0.5,1,1.3V23.3z M55.6,10h-0.5c-0.1,0-0.2,0-0.2,0c-0.1,0-0.1,0-0.2,0h-0.5c-2.5,0-3.7,1.2-3.7,3.7v9.4
				c0,2.5,1.2,3.7,3.7,3.7h0.5c0.1,0,0.2,0,0.2,0c0.1,0,0.1,0,0.2,0h0.5c2.5,0,3.7-1.2,3.7-3.7v-1.8h-1h-1.3h-1v1.9
				c0,0.9-0.4,1.3-1.2,1.4c-0.8-0.1-1.2-0.5-1.2-1.4v-3.9h4.7h1v-5.6C59.3,11.2,58.1,10,55.6,10z M56.1,17.1h-2.4v-3.4
				c0-0.9,0.4-1.3,1.2-1.4c0.8,0.1,1.2,0.6,1.2,1.4L56.1,17.1L56.1,17.1z M103.9,10c-0.1,0-0.3,0-0.4,0c-0.2,0-0.3,0-0.5,0
				c-0.7,0-1.3,0.2-1.9,0.5v-0.3h-0.9h-1.4h-0.9V30h0.9h1.4h0.9v-3.7c0.6,0.3,1.2,0.5,1.9,0.5c0.2,0,0.3,0,0.5,0c0.1,0,0.3,0,0.4,0
				c1,0,1.7-0.3,2.2-0.9c0.5-0.6,0.8-1.4,0.8-2.4V13.3c0-1-0.3-1.8-0.8-2.4C105.6,10.3,104.9,10,103.9,10z M103.6,23.3
				c0,0.7-0.3,1.2-1,1.3c-0.6-0.1-1.1-0.4-1.6-0.8V13c0.5-0.4,1-0.7,1.6-0.8c0.6,0.1,1,0.5,1,1.3V23.3z M116.5,19.6
				c-0.3-0.5-0.8-0.9-1.5-1.4l-2.8-1.7c-0.6-0.3-0.9-0.9-0.9-1.6v-1.4c0-0.8,0.4-1.3,1.1-1.4c0.7,0.1,1.1,0.5,1.1,1.4V16h1h1.3h1
				v-2.3c0-2.4-1.2-3.7-3.7-3.7h-0.4c-0.1,0-0.2,0-0.3,0c-0.1,0-0.2,0-0.3,0h-0.4c-2.5,0-3.7,1.2-3.7,3.7v1.5c0,0.8,0.1,1.4,0.4,1.9
				c0.3,0.5,0.8,0.9,1.5,1.4l2.8,1.7c0.6,0.4,0.9,0.9,0.9,1.6v1.6c0,0.8-0.4,1.3-1.2,1.4c-0.8-0.1-1.2-0.5-1.2-1.4v-2.6h-1h-1.3h-1
				v2.4c0,2.4,1.2,3.7,3.7,3.7h0.5c0.1,0,0.2,0,0.2,0c0.1,0,0.2,0,0.2,0h0.5c2.5,0,3.7-1.2,3.7-3.7v-1.6
				C117,20.7,116.8,20,116.5,19.6z M65.7,10c-0.6,0-1.1,0.1-1.5,0.4c-0.1,0.1-0.1,0.1-0.2,0.2v-0.5H63h-1.4h-1v16.5h1H63H64v-13
				c0.7-0.6,1.6-1,2.7-1V10c-0.4,0-0.7,0.1-1,0.2C65.7,10.2,65.7,10,65.7,10z M74.7,10.2h-1l-1.5,9.8l-1.5-9.8h-1h-1.4h-0.9l3,16.5
				h1h1.6H74l3-16.5h-1H74.7z M84.6,19.9h-0.9v3.3c0,0.9-0.4,1.3-1.2,1.4c-0.8-0.1-1.2-0.5-1.2-1.4v-9.6c0-0.9,0.4-1.3,1.2-1.4
				c0.8,0.1,1.2,0.6,1.2,1.4v2.7h0.9h1.4h1v-2.7c0-2.4-1.2-3.7-3.7-3.7h-0.6c-0.1,0-0.1,0-0.2,0c-0.1,0-0.1,0-0.2,0h-0.6
				c-2.5,0-3.7,1.2-3.7,3.7v9.4c0,2.5,1.2,3.7,3.7,3.7h0.6c0.1,0,0.1,0,0.2,0c0.1,0,0.1,0,0.2,0h0.6c2.5,0,3.7-1.2,3.7-3.7v-3.2
				h-0.9L84.6,19.9L84.6,19.9z M89.2,5h-0.9v21.6h0.9h1.4h0.9V5h-0.9H89.2z M93.9,5.9h-0.9v2.6h0.9h1.5h1V5.9h-1H93.9z M94,10.2h-1
				v16.5h1h1.4h0.9V10.2h-0.9H94z"/>
		</g>
	</g>
</g>
<g id="Shape_574_3_" class="st0">
	<g id="Shape_574">
		<g>
			<path class="st1" d="M22.5,17.1l-5.8-3.9c-0.3-0.2-0.8-0.2-1.1-0.1c-0.4,0.2-0.6,0.6-0.6,1v7.8c0,0.4,0.2,0.8,0.6,1
				c0.2,0.1,0.3,0.1,0.5,0.1c0.2,0,0.4-0.1,0.6-0.2l5.8-3.9c0.3-0.2,0.5-0.5,0.5-0.9C23,17.6,22.8,17.3,22.5,17.1z"/>
		</g>
	</g>
</g>
<g id="Shape_573_1_" class="st0">
	<g id="Shape_573">
		<g>
			<path class="st2" d="M29.2,21.9c-1-0.1-1.9,0.1-2.8,0.4c-1.5,0.6-1.9,1.6-3.1,2.5c-2.2,1.8-5.5,2.5-8.4,1.5
				c-1.7-0.6-3.2-1.7-4.4-3.2c0,3.7,0,7.4,0,11.1c5,2.2,10.7,2,15.4-0.5c4.6-2.5,7.9-6.8,9-12C33.1,21.8,31.1,21.9,29.2,21.9z"/>
		</g>
	</g>
</g>
<g id="Shape_574_2_" class="st0">
	<g id="Shape_574_1_">
		<g>
			<path class="st3" d="M23.1,0.8c-7.3-2.3-15,0.6-19.3,6C1.2,10,0,14.1,0,18.3V42c2.4,0,4.8-1,6.4-2.8C8,37.5,8.8,35.3,8.8,33V18.8
				c-0.2-3.8,1.6-7.2,4.6-8.8c3.3-1.8,7.4-1.1,9.7,0.8c0.3,0.3,1.4,1.7,2.7,2.4c1.1,0.5,2.3,0.7,3.6,0.5H35
				C33.4,7.7,29,2.7,23.1,0.8z"/>
		</g>
	</g>
</g>
</svg>
