<svg id="Layer_1" data-name="Layer 1" xmlns="http://www.w3.org/2000/svg" viewBox="0 0 198.67 26.87"><defs><style>.cls-1{fill:#fff;}.cls-2{fill:#9c0001;}</style></defs><path class="cls-1" d="M8.78,26.06v9.47H.66V9.47H11.8a16.5,16.5,0,0,1,6.33.95,7.69,7.69,0,0,1,3.43,2.92,8,8,0,0,1,1.27,4.42,7.63,7.63,0,0,1-2.59,6,10.12,10.12,0,0,1-6.94,2.29Zm-.12-5.59h2.68q3.52,0,3.53-2.6c0-1.63-1.09-2.44-3.26-2.44H8.66Z" transform="translate(-0.66 -9.07)"/><path class="cls-1" d="M37.08,35.93a11.82,11.82,0,0,1-9-3.64q-3.46-3.66-3.46-9.76A14.16,14.16,0,0,1,28,12.88q3.32-3.81,9.19-3.81A11.68,11.68,0,0,1,46,12.66q3.43,3.59,3.43,9.58,0,6.21-3.46,10A11.55,11.55,0,0,1,37.08,35.93ZM37,30A3,3,0,0,0,40,28.25c.59-1.18.89-3.33.89-6.47q0-6.8-3.65-6.79-3.93,0-3.93,7.75Q33.26,30,37,30Z" transform="translate(-0.66 -9.07)"/><path class="cls-1" d="M76,35.53H67.16l-3.81-10H60.83v10h-8V9.47H66.45q4.5,0,7,2.11a6.9,6.9,0,0,1,2.5,5.56,8.42,8.42,0,0,1-.92,4,7.74,7.74,0,0,1-3.71,3ZM60.83,20h3.42a4.2,4.2,0,0,0,2.42-.63,2.09,2.09,0,0,0,.92-1.85c0-1.67-1-2.5-3.07-2.5H60.83Z" transform="translate(-0.66 -9.07)"/><path class="cls-1" d="M102.1,35.53H95.58L88.45,24a44.31,44.31,0,0,1-2.78-5.39,18.17,18.17,0,0,1,.63,4.28V35.53H79.81V9.47h7.56L93.45,19a37.67,37.67,0,0,1,2.75,5,37.75,37.75,0,0,1-.62-6.84V9.47h6.52Z" transform="translate(-0.66 -9.07)"/><path class="cls-2" d="M150.55,9.47V35.53h-8V9.47Z" transform="translate(-0.66 -9.07)"/><path class="cls-2" d="M173.37,29.14v6.39H155.09V9.47h8V29.14Z" transform="translate(-0.66 -9.07)"/><path class="cls-2" d="M114,32.82l0,0,0,0Z" transform="translate(-0.66 -9.07)"/><path class="cls-2" d="M112.58,31l-.16.17.15-.16Z" transform="translate(-0.66 -9.07)"/><path class="cls-2" d="M115.69,34.28l0,0,0,0Z" transform="translate(-0.66 -9.07)"/><path class="cls-2" d="M114.45,35.49v0h0A.09.09,0,0,1,114.45,35.49Z" transform="translate(-0.66 -9.07)"/><path class="cls-2" d="M133.88,9.47l-3.65,15-3.87-15h-6.28l-3.55,15-3.65-15h-7.53l5.13,19.29.12-.12c.06-.07,0,0,.21-.06,0-.21,0,0,.07-.12a.4.4,0,0,0,.1-.19.13.13,0,0,1,.11.08c0-.34,0-.22.25-.09-.22-.16-.21-.17,0-.19-.1-.14,0-.19,0-.26s.13-.12.2-.19.2-.14.3-.23a1.35,1.35,0,0,0-.08-.19s.17.06.26,0l.07-.05c.1-.09.27-.25.32-.17s0-.12.17,0c0-.21,0-.33.23-.26-.09-.19,0-.25.18-.3s.12-.09.24-.18c-.29.23-.2.16,0,0l.13-.1c.37-.27.74-.52,1.09-.74l-.9,1c-.09.1-.19.21-.08.33-.32.1-.6.06-.46.58,0,0-.33,0-.45.18s-.26.26-.39.4a.39.39,0,0,0-.09.51.47.47,0,0,0-.56.39c-.16,0-.34.34-.46.48a3.14,3.14,0,0,1-.49.43l.47,1.76c.24-.23.47-.43.77-.76a.87.87,0,0,0,.33-.77,1.07,1.07,0,0,0,.86-.61.9.9,0,0,0,.32-.19c.1-.09.21-.19.18-.11.29-.32.34-.28.34-.28a1.2,1.2,0,0,0,.29-.47,1.81,1.81,0,0,1,.63-.3,1.39,1.39,0,0,0,0-.17l.54-.39c-.05-.05.23-.23.23-.23s.38-.24.32-.36c.39-.14.65-.19.5-.61.35,0,.72-.1.76-.55.11.2.28.08.46-.05l.51-.35a28.3,28.3,0,0,1,2.64-1.58s-.95.68-2.38,1.84l-.5.41-.22.19,0,0c-.3.25-.23.2,0,0-.21.17-.38.32-.55.32-.13.26-.26.37-.52.34,0,.23-.07.33-.3.39,0,.13-.09.22-.21.34s-.26.22-.51.46a1.8,1.8,0,0,0-.59.82,1.76,1.76,0,0,0-.85.58c-.19.19-.38.38-.2.19l-.3.31a2.21,2.21,0,0,1-.28.26.47.47,0,0,1-.33.23.67.67,0,0,1-.37.43.67.67,0,0,1-.13.23s0,0,0,0,0,0,0,.06l0,0-.22.25.07-.09-.11.13-.38.42-.28.32-.25.26.48,1.8c.19-.09.41-.5.56-.68.33-.41.58-.54,1-.94a.63.63,0,0,0,.21-.66.67.67,0,0,0,.69-.45.6.6,0,0,0,.26-.14c.08-.07.17-.15.15-.08.22-.26.27-.22.27-.22a.79.79,0,0,0,.19-.39,1.17,1.17,0,0,1,.53-.22.88.88,0,0,0,0-.14l.42-.31c0-.05.18-.19.18-.19s.3-.19.23-.3c.33-.1.41-.25.22-.65.45.19.58.09.72-.31.12.19.26.09.39,0l.4-.28a21.49,21.49,0,0,1,2-1.29s-.7.58-1.77,1.55c-.16.13-.32.28-.37.33l-.17.16,0,0c-.23.21-.18.17,0,0-.16.14-.29.26-.44.25-.07.23-.17.32-.4.27.06.21,0,.29-.21.33,0,.11-.05.19-.15.29s-.19.18-.38.38A1.15,1.15,0,0,0,116,31a1.17,1.17,0,0,0-.69.44l-.15.15a3,3,0,0,1-.23.25,1.29,1.29,0,0,1-.21.2.34.34,0,0,1-.28.18.39.39,0,0,1-.27.34.58.58,0,0,1-.1.19l0,0s0,0,0,0l0,0-.17.21.13-.17-.16.2s-.15.16-.3.33-.15.16-.22.25l-.22.24c-.07.1,0,0-.25.11,0,.26-.06,0-.09.16a.58.58,0,0,0-.14.27.14.14,0,0,1-.13-.08c0,.41,0,.27-.29.18.25.13.23.16-.07.25a.19.19,0,0,1,0,.21l.15.55h1.56a.9.9,0,0,0,.12-.24c.15,0,.36-.41.49-.57.27-.32.47-.43.76-.75a.49.49,0,0,0,.17-.52.56.56,0,0,0,.55-.36.56.56,0,0,0,.2-.11c.07-.06.14-.12.12-.07.17-.21.21-.17.21-.17a.61.61,0,0,0,.16-.32.93.93,0,0,1,.41-.18,1,1,0,0,0,0-.11l.33-.25s.14-.15.14-.15.24-.15.18-.24c.26-.09.42-.25.44-.22a1.13,1.13,0,0,0,.3-.56c.1.15.2.07.31,0l.31-.23a7.9,7.9,0,0,1,.91-.53s.14-.06-.7.72l-.29.28-.14.13,0,0c-.18.17-.14.14,0,0-.12.11-.22.21-.34.21-.06.17-.13.25-.31.21,0,.17,0,.23-.17.27,0,.09,0,.15-.11.23l-.31.3a1,1,0,0,0-.32.55,1,1,0,0,0-.55.36c-.11.12-.23.24-.12.12l-.18.2a1.25,1.25,0,0,1-.17.16.27.27,0,0,1-.22.14.31.31,0,0,1-.22.27.35.35,0,0,1-.08.16l0,0s0,0,0,0l0,0a1.41,1.41,0,0,1-.14.16.63.63,0,0,0,.11-.13l-.13.16-.24.26c-.06.07-.12.13-.17.2l-.18.19c-.06.08,0,0-.2.09,0,.2,0,0-.07.13a.49.49,0,0,0-.11.19h4.72l3.45-14.38,3.64,14.38h6.72L140,9.47Z" transform="translate(-0.66 -9.07)"/><path class="cls-2" d="M186.57,11.49l0,0,0,0Z" transform="translate(-0.66 -9.07)"/><path class="cls-2" d="M196.07,13.36a11.16,11.16,0,0,0-7.7-3.76.89.89,0,0,0-.25.46.92.92,0,0,0-.54.35l-.12.13-.19.2a1.29,1.29,0,0,1-.17.16.25.25,0,0,1-.21.14.34.34,0,0,1-.22.27,1.09,1.09,0,0,1-.08.15,0,0,0,0,1,0,0c.05,0,0,0,0,0v0l-.14.16.11-.13-.13.15-.24.27-.18.2-.17.19c-.06.08,0,0-.2.09,0,.2-.05,0-.08.13a.55.55,0,0,0-.11.2.08.08,0,0,1-.1-.06c0,.33,0,.21-.24.14.2.11.19.13-.05.2.08.11,0,.18,0,.26a.71.71,0,0,1-.19.23l-.29.29a1.1,1.1,0,0,0,.07.17s-.16,0-.24.09-.09.08-.07.06-.25.31-.29.25,0,.12-.16.08c0,.21,0,.33-.21.32.09.16,0,.26-.15.35s-.11.12-.21.25c.25-.31.17-.21,0,0,0-.06,0,0-.12.13-.32.39-.62.76-.92,1.11,0,0,.26-.49.73-1.26.08-.13.17-.26.06-.34.3-.21.55-.25.41-.71a1.18,1.18,0,0,0,.43-.32c.11-.14.23-.32.36-.5a.45.45,0,0,0,.11-.52.67.67,0,0,0,.56-.52c.15,0,.35-.41.49-.57.26-.32.46-.42.76-.74a.52.52,0,0,0,.16-.52.57.57,0,0,0,.56-.36.47.47,0,0,0,.2-.12c.07,0,.13-.12.12-.06.17-.21.21-.18.21-.18a.66.66,0,0,0,.16-.31.64.64,0,0,1,.21-.12c-.48,0-1,0-1.47,0h-1a.41.41,0,0,1-.28.33.48.48,0,0,1-.09.19l0,0s0,0,0,0l0,0a1.64,1.64,0,0,1-.17.2,1,1,0,0,0,.14-.17,1.3,1.3,0,0,1-.17.2l-.29.33-.22.25-.22.24c-.08.1,0,.05-.25.12,0,.25-.06,0-.09.16a.7.7,0,0,0-.15.26s-.08,0-.12-.08c0,.42,0,.27-.3.18.26.14.24.16-.06.25.1.14,0,.24-.06.33s-.15.19-.23.29l-.3.36c.26-.31.15-.18,0,0l-.23.29-.19.23c-.11.14-.19.25-.25.17s0,.06,0,.05a.69.69,0,0,0,.17-.17c-.08.1-.13.16-.17.17a.3.3,0,0,1-.25.06c0,.26-.06.36-.32.35.11.2,0,.29-.13.4a.72.72,0,0,1-.17.32c.15-.2.19-.24-.07.1l.07-.1-.11.14-.14.18-1.12,1.41s.3-.62.88-1.6c.09-.17.2-.34,0-.44.37-.27.49-.46.3-1a.48.48,0,0,0,.72-.26c.14-.19.3-.41.45-.64A.56.56,0,0,0,182,12a.82.82,0,0,0,.69-.66c.19,0,.44-.52.61-.72.33-.4.58-.53,1-.94a1.09,1.09,0,0,0,.13-.17h-2.12l0,0c-.09.12,0,.06-.29.17,0,.29-.07.06-.12.2a.83.83,0,0,0-.2.32.1.1,0,0,1-.13-.07c0,.48,0,.31-.35.25.26.12.24.15-.11.3.1.14,0,.27-.1.39l-.3.37-.37.47c.32-.41.19-.24,0,.05l-.3.38-.23.29c-.14.19-.24.32-.29.24s0,.07.05.05a1.57,1.57,0,0,0,.2-.23,1.05,1.05,0,0,1-.2.23.34.34,0,0,1-.28.11c0,.31-.11.43-.4.47.1.21,0,.34-.17.49a1.61,1.61,0,0,1-.23.41c.2-.27.23-.32-.08.12l.08-.12-.13.18-.17.23c-.47.64-.91,1.27-1.33,1.87,0,0,.36-.79,1.08-2.06.12-.21.25-.43.1-.52a1.09,1.09,0,0,0,.44-1.29c.47.15.64-.11.83-.41s.36-.53.57-.82.34-.48.22-.79a1.32,1.32,0,0,0,.85-.87,1.33,1.33,0,0,0,.43-.45h-2.12c-.11.07-.17.15-.2.13s-.12.25-.12.57c-.15-.15-.23-.06-.31,0l-.24.26c-.39.43-.32.22-.72.61,0,0-.13.07.43-.8l.2-.3.09-.14v0c.13-.19.1-.15,0,0,.09-.13.16-.23.29-.23a.42.42,0,0,1,0-.13h-2.45V35.53h10.58a12.05,12.05,0,0,0,9.1-3.65,13.16,13.16,0,0,0,3.51-9.5A13.61,13.61,0,0,0,196.07,13.36Zm-6.48,14.25a4,4,0,0,1-3.35,1.93h-2.09V15.39h2.09a3.86,3.86,0,0,1,3.5,2.06A9.48,9.48,0,0,1,191,22.36,9,9,0,0,1,189.59,27.61Z" transform="translate(-0.66 -9.07)"/><path class="cls-2" d="M184.89,10s0,0,0,0,0,0,0,0Z" transform="translate(-0.66 -9.07)"/></svg>