<?xml version="1.0" encoding="utf-8"?>
<!-- Generator: Adobe Illustrator 18.1.1, SVG Export Plug-In . SVG Version: 6.00 Build 0)  -->
<svg version="1.1" id="Layer_1" xmlns="http://www.w3.org/2000/svg" xmlns:xlink="http://www.w3.org/1999/xlink" x="0px" y="0px"
	 viewBox="0 0 122.4 20.2" enable-background="new 0 0 122.4 20.2" xml:space="preserve">
<g>
	<g>
		<path d="M10.3,1.6C9,1.2,7.5,0.9,5.8,0.9H0v18.3h5.8v-4.4c4.2-0.1,6.2-0.9,7.5-3.2c0.6-1.1,0.9-2.4,0.9-3.7
			C14.1,5,12.6,2.4,10.3,1.6z M5.8,9.9v-4c1.6,0,2.4,0.7,2.4,2C8.2,9.2,7.4,9.9,5.8,9.9z M24.1,0.5c-5.3,0-9.6,4.3-9.6,9.6
			c0,5.3,4.3,9.6,9.6,9.6c5.3,0,9.6-4.3,9.6-9.6C33.7,4.8,29.4,0.5,24.1,0.5z M24.1,13.9c-2.1,0-3.8-1.7-3.8-3.8
			c0-2.1,1.7-3.8,3.8-3.8c2.1,0,3.8,1.7,3.8,3.8C28,12.2,26.2,13.9,24.1,13.9z M47.7,11.6c0.7-0.9,1-2.2,1-3.5c0-2.1-1-4.2-2.7-5.5
			c-1.4-1.1-3.1-1.6-5.4-1.6h-6.5v18.3H40v-4.5l3,4.5h6.6l-3.4-6C47.1,12.4,47.4,12.2,47.7,11.6z M41.7,9.6
			c-0.4,0.2-0.6,0.3-1.4,0.3H40v-4h0.3c0.8,0,1,0,1.4,0.3c0.6,0.3,1,1,1,1.8C42.7,8.6,42.3,9.3,41.7,9.6z M60.1,8l-5-7h-4.8v18.3
			h5.8v-7l5,7h4.9V0.9h-5.8V8z M93.2,0.5c-5.3,0-9.6,4.3-9.6,9.6c0,5.3,4.3,9.6,9.6,9.6c5.3,0,9.6-4.3,9.6-9.6
			C102.8,4.8,98.5,0.5,93.2,0.5z M93.2,13.9c-2.1,0-3.8-1.7-3.8-3.8c0-2.1,1.7-3.8,3.8-3.8c2.1,0,3.8,1.7,3.8,3.8
			C97,12.2,95.3,13.9,93.2,13.9z M117.6,0.9l-4.7,7l-4.8-7h-4.8v18.3h5.8v-6.6l3.8,5.5l3.7-5.5v6.6h5.9V0.9H117.6z M78.9,13.9
			c-2.3,0-4.2-1.7-4.2-3.8c0-2.1,1.9-3.8,4.2-3.8c1.3,0,2.6,0.5,3.4,1.4l3-5.2c-2.1-1.4-3.9-1.9-6.4-1.9c-5.8,0-10.6,4.3-10.6,9.6
			c0,1.2,0.2,2.3,0.7,3.4c0.2,0,0.4-0.1,0.6-0.1c2.1,0,3.8,1.7,3.8,3.8c0,0.3-0.1,0.7-0.1,1c1.6,0.9,3.5,1.4,5.5,1.4
			c2.6,0,4.6-0.7,6.8-2.2l-3.2-5.1C81.2,13.5,80.2,13.9,78.9,13.9z"/>
	</g>
</g>
<path fill="#EC2127" d="M69.6,19.7c1.3,0,2.4-1.1,2.4-2.4c0-1.4-1.1-2.4-2.4-2.4c-1.3,0-2.4,1.1-2.4,2.4
	C67.2,18.6,68.3,19.7,69.6,19.7z"/>
</svg>
