<?xml version="1.0" encoding="utf-8"?>
<!-- Generator: Adobe Illustrator 21.1.0, SVG Export Plug-In . SVG Version: 6.00 Build 0)  -->
<svg version="1.1" id="Layer_1" xmlns="http://www.w3.org/2000/svg" xmlns:xlink="http://www.w3.org/1999/xlink" x="0px" y="0px"
	 viewBox="0 0 200 48" style="enable-background:new 0 0 200 48;" xml:space="preserve">
<style type="text/css">
	.st0{enable-background:new    ;}
	.st1{fill:#FF9C00;}
	.st2{fill:#FFFFFF;}
</style>
<g id="Shape_814_1_" class="st0">
	<g id="Shape_814">
		<g>
			<polygon class="st1" points="0,13 0,17 23,17 23,36 13,42.6 13,48 27,38.7 27,13 			"/>
		</g>
	</g>
</g>
<g id="Shape_816_1_" class="st0">
	<g id="Shape_816_3_">
		<g>
			<path class="st1" d="M0,19v19.9L11,46V30h10V19H0z M16,26H7v12l-3-2V24h12V26z"/>
		</g>
	</g>
</g>
<g id="Shape_818_1_" class="st0">
	<g id="Shape_818">
		<g>
			<path class="st1" d="M19.1,4.2l-0.7-2.6l-2.1,2l1.1,2L19.1,4.2z M10.8,3.5l-2.1-2L7.9,4.2l1.8,1.3L10.8,3.5z M17.1,6.4L13.5,0
				L9.9,6.4L3,1.5L5.5,11h15.9L24,1.5L17.1,6.4z"/>
		</g>
	</g>
</g>
<g id="pornicom_1_" class="st0">
	<g id="pornicom_3_">
		<g>
			<path class="st2" d="M42.3,12.3H32v25.5h5.7V17.7h3.8c2.6,0,3.9,1.1,3.9,3.4c0,2.3-1.3,3.4-3.9,3.4h-1.7v5.5h2.5
				c5.9,0,8.9-3,8.9-8.9S48.3,12.3,42.3,12.3z M66.7,12.2h-4c-6,0-9.1,4.3-9.1,12.9c0,8.6,3,12.9,9.1,12.9h4c6,0,9.1-4.3,9.1-12.9
				C75.7,16.5,72.7,12.2,66.7,12.2z M69.9,26.7c0,3.9-1.7,5.8-5.1,5.8h-0.3c-3.4,0-5.1-1.9-5.1-5.8v-3.1c0-3.9,1.6-5.9,4.9-6H65
				c3.3,0,4.9,2,4.9,6C69.9,23.6,69.9,26.7,69.9,26.7z M93.4,26.2l2.2-2.6c1.3-1.4,2-3,2-4.8c0-2-0.6-3.6-1.7-4.7
				c-1.2-1.1-2.7-1.7-4.6-1.7H78.1l0,25.4h5.7V17.6h7.6c0.6,0,0.8,0.2,0.8,0.7c0,0.4-0.2,0.9-0.5,1.3l-4.1,5c-1,1.2-1,2.8,0,4.9
				l4.2,8.3h6.9L93.2,28C92.9,27.3,93,26.7,93.4,26.2z M114.6,12.3v13.4l-8.9-12.5c-0.4-0.5-0.8-0.8-1.4-1c-0.6-0.2-1.2-0.2-1.7,0
				c-0.6,0.2-1,0.5-1.4,1c-0.4,0.5-0.5,1.1-0.5,1.7v22.9h5.7V24.3l8.9,12.6c0.4,0.5,0.8,0.8,1.4,1c0.6,0.2,1.2,0.2,1.7,0
				c0.6-0.2,1.1-0.5,1.4-1c0.4-0.5,0.5-1.1,0.5-1.7V12.3H114.6z"/>
		</g>
	</g>
</g>
<g id="pornicom_copy_1_" class="st0">
	<g id="pornicom_copy">
		<g>
			<path class="st1" d="M132.5,25.1c0,8.5,3.3,12.7,9.8,12.7h7.9v-5.4h-5.4c-4.3,0-6.5-1.9-6.5-5.8c0-1,0-1.9,0-2.7c0-4,2.2-6,6.5-6
				h5.4v-5.5h-7.9C135.8,12.4,132.5,16.6,132.5,25.1z M165.9,12.2h-4c-6,0-9.1,4.3-9.1,12.9c0,8.6,3,12.9,9.1,12.9h4
				c6,0,9.1-4.3,9.1-12.9C174.9,16.5,171.9,12.2,165.9,12.2z M169.1,26.7c0,3.9-1.7,5.8-5.1,5.8h-0.3c-3.4,0-5.1-1.9-5.1-5.8v-3.1
				c0-3.9,1.6-5.9,4.9-6h0.6c3.3,0,4.9,2,4.9,6L169.1,26.7L169.1,26.7z M199.4,13.2c-0.4-0.5-0.9-0.8-1.5-0.9
				c-0.6-0.1-1.4-0.1-2.4,0.2c-0.6,0.3-1,0.7-1.3,1.2l-5.5,11.5l-5.5-11.6c-0.3-0.5-0.7-1-1.3-1.2c-0.9-0.3-1.7-0.3-2.4-0.2
				c-0.6,0.1-1.2,0.5-1.5,0.9c-0.4,0.5-0.6,1-0.6,1.6v23h5.6V26.2l3.3,7.3c0.2,0.4,0.6,0.8,1,1.1c0.5,0.3,0.9,0.4,1.5,0.4
				c0.5,0,1-0.1,1.5-0.4c0.5-0.3,0.8-0.6,1-1.1l3.2-7.3v11.6h5.6V14.9C200,14.3,199.8,13.7,199.4,13.2z"/>
		</g>
	</g>
</g>
<g id="pornicom_copy_2_1_" class="st0">
	<g id="pornicom_copy_2_3_">
		<g>
			<rect x="123.7" y="12.3" class="st2" width="5.7" height="25.5"/>
		</g>
	</g>
</g>
</svg>
