<?xml version="1.0" encoding="utf-8"?>
<!-- Generator: Adobe Illustrator 16.0.0, SVG Export Plug-In . SVG Version: 6.00 Build 0)  -->
<!DOCTYPE svg PUBLIC "-//W3C//DTD SVG 1.1//EN" "http://www.w3.org/Graphics/SVG/1.1/DTD/svg11.dtd">
<svg version="1.1" xmlns="http://www.w3.org/2000/svg" xmlns:xlink="http://www.w3.org/1999/xlink" x="0px" y="0px" width="226px"
	 height="40px" viewBox="0 0 226 40" enable-background="new 0 0 226 40" xml:space="preserve">
<g id="PornWatchers_1_" enable-background="new    ">
	<g id="PornWatchers">
		<g>
			<path fill="#FFFFFF" d="M51.764,11.145c-0.859-0.569-1.764-0.854-2.716-0.854h-6.384c-0.486,0-0.892,0.163-1.218,0.489
				c-0.327,0.327-0.49,0.733-0.49,1.219v16.184c0,0.485,0.149,0.892,0.448,1.218c0.298,0.327,0.681,0.49,1.148,0.49
				c0.485,0,0.877-0.158,1.176-0.476c0.298-0.317,0.448-0.729,0.448-1.232v-5.292h4.872c0.952,0,1.857-0.284,2.716-0.854
				c0.858-0.569,1.549-1.34,2.072-2.311c0.522-0.971,0.784-2.016,0.784-3.136c0-1.139-0.262-2.188-0.784-3.15
				C53.312,12.479,52.622,11.714,51.764,11.145z M50.938,18.089c-0.215,0.476-0.495,0.863-0.84,1.162
				c-0.346,0.299-0.696,0.447-1.05,0.447h-4.872v-6.188h4.872c0.354,0,0.705,0.145,1.05,0.434c0.345,0.29,0.625,0.672,0.84,1.148
				c0.214,0.476,0.322,0.976,0.322,1.498S51.152,17.612,50.938,18.089z M67.625,15.625c-1.167-0.663-2.45-0.994-3.85-0.994
				c-1.418,0-2.707,0.331-3.864,0.994c-1.158,0.662-2.072,1.587-2.744,2.771c-0.672,1.186-1.008,2.525-1.008,4.019
				s0.336,2.832,1.008,4.018c0.672,1.186,1.586,2.104,2.744,2.758c1.157,0.654,2.445,0.98,3.864,0.98c1.4,0,2.684-0.326,3.85-0.98
				c1.167-0.653,2.086-1.572,2.758-2.758c0.672-1.186,1.008-2.524,1.008-4.018s-0.336-2.833-1.008-4.019
				C69.711,17.212,68.792,16.287,67.625,15.625z M67.458,24.851c-0.383,0.71-0.896,1.26-1.54,1.652
				c-0.644,0.392-1.358,0.588-2.142,0.588c-0.784,0-1.498-0.196-2.142-0.588c-0.644-0.393-1.158-0.942-1.54-1.652
				c-0.383-0.709-0.574-1.521-0.574-2.436c0-0.915,0.191-1.731,0.574-2.45c0.382-0.719,0.896-1.274,1.54-1.666
				c0.644-0.393,1.358-0.588,2.142-0.588c0.784,0,1.498,0.195,2.142,0.588c0.644,0.392,1.157,0.947,1.54,1.666
				c0.382,0.719,0.574,1.535,0.574,2.45C68.032,23.329,67.84,24.142,67.458,24.851z M83.109,15.106
				c-0.383-0.317-0.854-0.476-1.414-0.476c-0.915,0-1.774,0.2-2.576,0.602c-0.803,0.401-1.419,0.985-1.848,1.75v-0.364
				c0-0.484-0.159-0.891-0.476-1.218c-0.317-0.326-0.719-0.49-1.204-0.49c-0.486,0-0.887,0.164-1.204,0.49
				c-0.318,0.327-0.476,0.733-0.476,1.218v11.564c0,0.485,0.158,0.892,0.476,1.218c0.317,0.327,0.718,0.49,1.204,0.49
				c0.485,0,0.886-0.163,1.204-0.49c0.317-0.326,0.476-0.732,0.476-1.218v-6.636c0-0.84,0.145-1.563,0.434-2.17
				c0.289-0.606,0.658-1.06,1.106-1.358c0.448-0.298,0.915-0.448,1.4-0.448c0.224,0,0.434,0.028,0.63,0.084
				c0.196,0.057,0.322,0.094,0.378,0.112c0.354,0.131,0.672,0.196,0.952,0.196c0.411,0,0.766-0.145,1.064-0.435
				c0.298-0.289,0.448-0.723,0.448-1.302C83.684,15.798,83.492,15.424,83.109,15.106z M97.74,16.324
				c-0.728-1.129-2.044-1.693-3.948-1.693c-0.971,0-1.862,0.242-2.674,0.728c-0.812,0.486-1.47,1.064-1.974,1.736v-0.477
				c0-0.484-0.159-0.891-0.476-1.218c-0.317-0.326-0.719-0.49-1.204-0.49s-0.887,0.164-1.204,0.49
				c-0.318,0.327-0.476,0.733-0.476,1.218v11.564c0,0.485,0.158,0.892,0.476,1.218c0.317,0.327,0.718,0.49,1.204,0.49
				s0.887-0.163,1.204-0.49c0.317-0.326,0.476-0.732,0.476-1.218v-7.168c0-0.952,0.308-1.74,0.924-2.366
				c0.616-0.625,1.465-0.938,2.548-0.938c1.045,0,1.782,0.294,2.212,0.882c0.429,0.588,0.644,1.396,0.644,2.422v7.168
				c0,0.485,0.158,0.892,0.476,1.218c0.317,0.327,0.718,0.49,1.204,0.49s0.887-0.163,1.204-0.49
				c0.317-0.326,0.476-0.732,0.476-1.218v-7.168C98.832,19.018,98.468,17.454,97.74,16.324z"/>
		</g>
	</g>
</g>
<g id="PornWatchers_copy_1_" enable-background="new    ">
	<g id="PornWatchers_copy">
		<g>
			<path fill="#FF8A00" d="M124.508,10.207c-0.374,0-0.715,0.098-1.022,0.294c-0.308,0.195-0.518,0.462-0.63,0.798l-4.145,12.572
				l-3.443-8.652c-0.149-0.336-0.359-0.603-0.63-0.798c-0.271-0.196-0.583-0.284-0.938-0.267c-0.354-0.018-0.672,0.07-0.952,0.267
				c-0.28,0.195-0.495,0.462-0.644,0.798l-3.64,8.736l-4.172-12.656c-0.112-0.336-0.317-0.603-0.616-0.798
				c-0.299-0.196-0.635-0.294-1.008-0.294c-0.467,0-0.892,0.173-1.274,0.518c-0.383,0.346-0.574,0.779-0.574,1.302
				c0,0.168,0.028,0.355,0.084,0.561l5.516,16.239c0.112,0.318,0.308,0.57,0.588,0.757c0.28,0.187,0.588,0.289,0.924,0.308
				c0.336,0,0.653-0.093,0.952-0.28c0.298-0.187,0.532-0.457,0.7-0.812l4.004-9.044l3.976,9.044c0.168,0.354,0.401,0.625,0.7,0.812
				c0.299,0.188,0.615,0.28,0.952,0.28c0.336-0.019,0.644-0.121,0.924-0.308s0.476-0.438,0.588-0.757l5.517-16.239
				c0.056-0.205,0.084-0.393,0.084-0.561c0-0.522-0.192-0.956-0.574-1.302C125.371,10.38,124.955,10.207,124.508,10.207z
				 M140.188,14.631c-0.485,0-0.887,0.163-1.203,0.49c-0.318,0.326-0.477,0.732-0.477,1.218v0.027
				c-0.541-0.504-1.204-0.919-1.988-1.245c-0.783-0.327-1.623-0.49-2.52-0.49c-1.251,0-2.395,0.331-3.43,0.994
				c-1.036,0.662-1.854,1.587-2.45,2.771c-0.598,1.186-0.896,2.525-0.896,4.019s0.303,2.827,0.909,4.004
				c0.606,1.176,1.433,2.096,2.478,2.758c1.046,0.663,2.213,0.994,3.5,0.994c0.878,0,1.713-0.192,2.507-0.574
				c0.793-0.383,1.423-0.845,1.89-1.386c0.019,0.485,0.182,0.887,0.49,1.204s0.704,0.476,1.189,0.476
				c0.486,0,0.887-0.163,1.205-0.49c0.316-0.326,0.476-0.732,0.476-1.218V16.339c0-0.504-0.159-0.915-0.476-1.232
				C141.074,14.789,140.674,14.631,140.188,14.631z M137.5,25.761c-0.766,0.887-1.755,1.33-2.969,1.33
				c-1.213,0-2.197-0.443-2.953-1.33s-1.135-2.002-1.135-3.346c0-1.345,0.383-2.465,1.148-3.36c0.766-0.896,1.745-1.344,2.939-1.344
				c1.214,0,2.203,0.447,2.969,1.344c0.766,0.896,1.148,2.016,1.148,3.36C138.648,23.759,138.266,24.874,137.5,25.761z
				 M152.031,18.271c0.449,0,0.822-0.145,1.121-0.434c0.298-0.289,0.447-0.648,0.447-1.078c0-0.448-0.149-0.821-0.447-1.12
				c-0.299-0.299-0.672-0.448-1.121-0.448h-1.987v-1.792c0-0.485-0.159-0.891-0.476-1.218c-0.318-0.326-0.71-0.49-1.176-0.49
				c-0.486,0-0.893,0.164-1.219,0.49c-0.326,0.327-0.49,0.732-0.49,1.218v1.792h-1.287c-0.449,0-0.822,0.145-1.121,0.435
				c-0.299,0.289-0.447,0.648-0.447,1.077c0,0.448,0.148,0.822,0.447,1.12c0.299,0.299,0.672,0.448,1.121,0.448h1.287v7.729
				c0,1.605,0.396,2.655,1.19,3.149c0.793,0.495,1.769,0.742,2.926,0.742c0.69,0,1.312-0.173,1.862-0.518
				c0.551-0.346,0.826-0.771,0.826-1.274c0-0.41-0.107-0.742-0.322-0.994s-0.453-0.378-0.714-0.378c-0.206,0-0.421,0.047-0.644,0.14
				c-0.262,0.075-0.467,0.112-0.617,0.112c-0.354,0-0.635-0.088-0.84-0.266s-0.308-0.462-0.308-0.854v-7.588H152.031z
				 M166.732,26.026c-0.243,0-0.448,0.038-0.616,0.112c-0.168,0.075-0.351,0.182-0.546,0.322c-0.196,0.14-0.35,0.237-0.462,0.294
				c-0.448,0.224-1.13,0.336-2.044,0.336c-1.251,0-2.277-0.443-3.08-1.33s-1.204-2.002-1.204-3.346c0-1.4,0.396-2.534,1.19-3.402
				c0.793-0.868,1.89-1.302,3.289-1.302c0.225,0,0.519,0.037,0.883,0.111c0.363,0.075,0.639,0.159,0.826,0.252
				c0.168,0.094,0.34,0.21,0.518,0.351c0.178,0.14,0.359,0.252,0.546,0.336s0.429,0.126,0.728,0.126
				c0.393,0,0.709-0.154,0.953-0.462c0.242-0.309,0.363-0.667,0.363-1.078c0-0.821-0.485-1.479-1.456-1.974
				c-0.971-0.495-2.249-0.742-3.836-0.742c-1.419,0-2.688,0.331-3.808,0.994c-1.12,0.662-1.993,1.582-2.618,2.758
				c-0.626,1.176-0.938,2.52-0.938,4.032c0,1.456,0.299,2.776,0.896,3.962s1.441,2.113,2.533,2.786
				c1.093,0.672,2.357,1.008,3.795,1.008c0.971,0,1.885-0.117,2.744-0.351c0.857-0.232,1.549-0.546,2.072-0.938
				c0.521-0.393,0.783-0.812,0.783-1.26c0-0.467-0.136-0.85-0.406-1.148S167.199,26.026,166.732,26.026z M178.268,14.631
				c-0.951,0-1.814,0.237-2.59,0.714c-0.774,0.476-1.414,1.05-1.918,1.722v-6.188c0-0.485-0.158-0.892-0.476-1.219
				c-0.317-0.326-0.719-0.489-1.204-0.489s-0.887,0.163-1.204,0.489c-0.317,0.327-0.476,0.733-0.476,1.219v17.304
				c0,0.485,0.158,0.892,0.476,1.218c0.317,0.327,0.719,0.49,1.204,0.49s0.887-0.163,1.204-0.49
				c0.317-0.326,0.476-0.732,0.476-1.218v-7.168c0-0.952,0.295-1.74,0.883-2.366c0.588-0.625,1.404-0.938,2.449-0.938
				c1.008,0,1.713,0.294,2.114,0.882s0.603,1.396,0.603,2.422v7.168c0,0.485,0.158,0.892,0.476,1.218
				c0.317,0.327,0.718,0.49,1.204,0.49c0.485,0,0.887-0.163,1.204-0.49c0.317-0.326,0.476-0.732,0.476-1.218v-7.168
				c0-1.997-0.354-3.561-1.064-4.69C181.395,15.195,180.116,14.631,178.268,14.631z M196.37,15.639
				c-1.092-0.672-2.254-1.008-3.485-1.008c-1.252,0-2.428,0.321-3.528,0.966c-1.103,0.644-1.988,1.573-2.66,2.786
				c-0.672,1.214-1.009,2.623-1.009,4.228c0,1.438,0.318,2.73,0.953,3.878c0.634,1.148,1.535,2.049,2.701,2.702
				c1.167,0.654,2.534,0.98,4.103,0.98c0.896,0,1.782-0.149,2.659-0.448c0.878-0.299,1.578-0.662,2.101-1.092
				c0.522-0.41,0.784-0.868,0.784-1.372c0-0.373-0.141-0.7-0.42-0.98c-0.28-0.279-0.616-0.42-1.008-0.42
				c-0.299,0-0.616,0.084-0.952,0.252c-0.094,0.057-0.267,0.164-0.519,0.322c-0.252,0.159-0.592,0.308-1.021,0.448
				c-0.43,0.14-1.027,0.21-1.792,0.21c-1.009,0-1.913-0.312-2.716-0.938c-0.803-0.625-1.316-1.488-1.541-2.59h9.24
				c0.448,0,0.84-0.14,1.176-0.42s0.514-0.644,0.533-1.092c0-1.325-0.327-2.558-0.98-3.696
				C198.334,17.216,197.463,16.311,196.37,15.639z M196.385,20.763h-7.336c0.392-2.034,1.67-3.052,3.836-3.052
				c0.877,0,1.66,0.279,2.352,0.84c0.69,0.56,1.073,1.231,1.148,2.016V20.763z M211.686,15.106
				c-0.383-0.317-0.854-0.476-1.414-0.476c-0.914,0-1.773,0.2-2.575,0.602c-0.803,0.401-1.419,0.985-1.849,1.75v-0.364
				c0-0.484-0.158-0.891-0.476-1.218c-0.317-0.326-0.719-0.49-1.204-0.49s-0.887,0.164-1.203,0.49
				c-0.318,0.327-0.477,0.733-0.477,1.218v11.564c0,0.485,0.158,0.892,0.477,1.218c0.316,0.327,0.718,0.49,1.203,0.49
				s0.887-0.163,1.204-0.49c0.317-0.326,0.476-0.732,0.476-1.218v-6.636c0-0.84,0.145-1.563,0.435-2.17
				c0.289-0.606,0.658-1.06,1.106-1.358c0.447-0.298,0.914-0.448,1.399-0.448c0.224,0,0.435,0.028,0.63,0.084
				c0.196,0.057,0.322,0.094,0.379,0.112c0.354,0.131,0.672,0.196,0.951,0.196c0.41,0,0.766-0.145,1.064-0.435
				c0.298-0.289,0.447-0.723,0.447-1.302C212.26,15.798,212.068,15.424,211.686,15.106z M224.355,23.255
				c-0.467-0.616-1.035-1.073-1.707-1.372s-1.512-0.588-2.52-0.868c-0.729-0.205-1.293-0.378-1.695-0.518
				c-0.4-0.141-0.732-0.337-0.993-0.589c-0.262-0.252-0.392-0.583-0.392-0.993c0-1.026,0.709-1.54,2.127-1.54
				c0.672,0,1.274,0.121,1.807,0.363c0.531,0.243,0.966,0.57,1.302,0.98c0.261,0.262,0.597,0.392,1.008,0.392
				c0.337,0,0.635-0.103,0.896-0.308c0.355-0.28,0.533-0.635,0.533-1.064c0-0.373-0.122-0.709-0.365-1.008
				c-0.541-0.69-1.287-1.213-2.239-1.567s-1.903-0.532-2.856-0.532c-0.934,0-1.815,0.182-2.646,0.546
				c-0.831,0.364-1.503,0.878-2.017,1.54c-0.514,0.663-0.77,1.441-0.77,2.338c0,1.026,0.247,1.844,0.742,2.45
				c0.494,0.606,1.082,1.06,1.764,1.357c0.682,0.299,1.563,0.598,2.646,0.896c1.045,0.28,1.814,0.56,2.31,0.84
				s0.742,0.69,0.742,1.232c0,1.045-0.728,1.596-2.185,1.651c-0.858,0-1.592-0.14-2.197-0.42c-0.607-0.28-1.19-0.709-1.75-1.288
				c-0.355-0.354-0.729-0.532-1.12-0.532c-0.28,0-0.551,0.084-0.812,0.252c-0.486,0.337-0.729,0.747-0.729,1.232
				c0,0.336,0.084,0.616,0.252,0.84c0.672,0.915,1.54,1.578,2.604,1.988c1.064,0.41,2.213,0.616,3.444,0.616
				c0.896,0,1.769-0.178,2.618-0.532s1.545-0.872,2.086-1.554s0.812-1.479,0.812-2.395
				C225.057,24.683,224.822,23.871,224.355,23.255z"/>
		</g>
	</g>
</g>
<g id="Shape_3_copy_1_" enable-background="new    ">
	<g id="Shape_3_copy">
		<g>
			<linearGradient id="SVGID_1_" gradientUnits="userSpaceOnUse" x1="-2.1387" y1="30.1523" x2="29.9319" y2="6.8517">
				<stop  offset="0" style="stop-color:#C05A00"/>
				<stop  offset="1" style="stop-color:#FF8A00"/>
			</linearGradient>
			<path fill="url(#SVGID_1_)" d="M31.924,11.064L15.557,1.452C8.659-2.608,0.002,2.332,0.002,10.388V29.68
				c-0.068,7.987,8.657,12.929,15.555,8.867l16.367-9.68C38.687,24.874,38.687,15.059,31.924,11.064z M19,31C8.188,31,3,20,3,20
				S8.221,9,19,9s16,11,16,11S29.812,31,19,31z M19,11.494c-4.615,0-8.387,3.791-8.387,8.506c0,4.68,3.739,8.506,8.387,8.506
				s8.387-3.792,8.387-8.506C27.387,15.32,23.615,11.494,19,11.494z M19,25.534c-3.032,0-5.457-2.494-5.457-5.534
				s2.459-5.5,5.457-5.5c0.64,0,1.28,0.137,1.853,0.342c-0.202,0.342-0.303,0.751-0.303,1.161c0,1.332,1.078,2.426,2.392,2.426
				c0.438,0,0.842-0.103,1.146-0.308c0.236,0.581,0.337,1.229,0.337,1.879C24.423,23.074,21.998,25.534,19,25.534z"/>
		</g>
	</g>
</g>
<g id="Shape_1_copy_1_" enable-background="new    ">
	<g id="Shape_1_copy">
		<g>
			<ellipse fill="#FFFFFF" cx="22" cy="17.321" rx="2.918" ry="2.926"/>
		</g>
	</g>
</g>
</svg>
