<?xml version="1.0" encoding="utf-8"?>
<!-- Generator: Adobe Illustrator 21.1.0, SVG Export Plug-In . SVG Version: 6.00 Build 0)  -->
<svg version="1.1" id="Capa_1" xmlns="http://www.w3.org/2000/svg" xmlns:xlink="http://www.w3.org/1999/xlink" x="0px" y="0px"
	 viewBox="0 0 326.8 101.4" style="enable-background:new 0 0 326.8 101.4;" xml:space="preserve">
<style type="text/css">
	.st0{fill:url(#SVGID_1_);}
	.st1{fill:url(#SVGID_2_);}
	.st2{fill:#EF1C7C;}
	.st3{fill:url(#SVGID_3_);}
	.st4{fill:url(#SVGID_4_);}
	.st5{fill:none;}
	.st6{fill:url(#SVGID_5_);}
	.st7{fill:url(#SVGID_6_);}
	.st8{fill:url(#SVGID_7_);}
	.st9{fill:#FFFFFF;}
	.st10{fill:url(#SVGID_8_);}
</style>
<g>
	
		<linearGradient id="SVGID_1_" gradientUnits="userSpaceOnUse" x1="-567.2365" y1="808.5522" x2="-565.5504" y2="873.8878" gradientTransform="matrix(0.9076 -0.2494 0.2494 0.9076 547.651 -863.3669)">
		<stop  offset="0" style="stop-color:#FAACD5"/>
		<stop  offset="2.436924e-02" style="stop-color:#F9A5D0"/>
		<stop  offset="0.1783" style="stop-color:#F67BB7"/>
		<stop  offset="0.3357" style="stop-color:#F459A2"/>
		<stop  offset="0.4949" style="stop-color:#F23E91"/>
		<stop  offset="0.6569" style="stop-color:#F02B85"/>
		<stop  offset="0.823" style="stop-color:#EF207E"/>
		<stop  offset="1" style="stop-color:#EF1C7C"/>
	</linearGradient>
	<path class="st0" d="M261.1,45.3c6.7-1.9,13.2,4,12,10.8c-1.7,9.5-8.3,17-18.6,19.9c-14.7,4-28.4-3.6-32.4-18.1
		c-4-14.6,3.7-28,18.4-32.1c8-2.2,16-0.9,22,3c4.7,3.1,3.5,10.4-2,11.9l-0.6,0.2c-1.9,0.5-3.8,0-5.4-1c-2.9-2.1-6.8-2.7-10.6-1.6
		c-7.2,2-10.5,8.5-8.5,16.1c2.1,7.5,8.3,11.5,15.5,9.4c5-1.4,8.7-5,9.1-9.1l-7.7,2.2c-2.3,0.7-4.7-0.8-5.3-3l0,0
		c-0.7-2.3,0.8-4.7,3-5.3L261.1,45.3z"/>
	<g>
		<g>
			
				<linearGradient id="SVGID_2_" gradientUnits="userSpaceOnUse" x1="341.1234" y1="237.4112" x2="340.5294" y2="384.1032" gradientTransform="matrix(0.9412 0 0 0.9412 -30.5995 -140.3221)">
				<stop  offset="0" style="stop-color:#FFFFFF"/>
				<stop  offset="1" style="stop-color:#000000"/>
			</linearGradient>
			<path class="st1" d="M317.8,88.3c-0.5-1-1.1-1.8-2.2-2.4c-1.9-1.1-4.4-1.1-6.5-0.1c-0.3,0.2-0.7,0.4-0.9,0.6
				c-0.2-0.2-0.5-0.4-0.8-0.6c-1.5-0.9-3.6-1-5.2-0.5h-6.6v2.4c-0.6-0.7-1.3-1.2-2.1-1.7c-1.3-0.8-2.7-1.1-4.2-1.1
				c-2.1,0-4,0.8-5.6,2.2c-0.4,0.3-0.7,0.7-0.9,1c-0.8-0.9-1.7-1.7-2.7-2.3c-2.5-1.3-6-1.2-8.6,0.2c-1.3,0.8-2.4,1.8-3.2,3
				c-0.8,1.3-1.1,2.7-1.1,4.2c0,0.6,0.1,1,0.2,1.5c-1.3-0.6-2.9-0.4-4,0.7c-0.7,0.7-1,1.5-1,2.5c0,0.9,0.4,1.8,1,2.5
				c0.7,0.7,1.5,1,2.5,1c0.9,0,1.8-0.4,2.5-1c0.5-0.5,0.8-1.1,0.9-1.8c0.1,0.1,0.2,0.2,0.3,0.3c1.6,1.7,3.8,2.4,6.4,2.4
				c2.9,0,5.3-1,7-3.2c0.2,0.3,0.4,0.5,0.6,0.8c1.6,1.6,3.6,2.4,5.8,2.4c1.5,0,2.9-0.4,4.2-1.1c0.8-0.5,1.4-1,2.1-1.7v2.4h22.7v-9
				C318.4,90.5,318.3,89.2,317.8,88.3z"/>
			<g>
				<g>
					<path class="st2" d="M266.2,96.3c0.5,0,0.9,0.2,1.3,0.6s0.6,0.8,0.6,1.2s-0.2,0.9-0.6,1.3s-0.8,0.6-1.3,0.6s-0.9-0.2-1.3-0.6
						s-0.6-0.8-0.6-1.3s0.2-0.9,0.6-1.2C265.4,96.5,265.7,96.3,266.2,96.3z"/>
					<path class="st2" d="M282.2,89.6l-2.6,1.4c-0.5-0.5-0.9-0.8-1.4-1s-1-0.3-1.7-0.3c-1.1,0-2.2,0.4-2.8,1
						c-0.8,0.7-1.1,1.6-1.1,2.7c0,1,0.4,2,1,2.6c0.7,0.7,1.6,1,2.7,1c1.4,0,2.5-0.5,3.3-1.4l2.4,1.7c-1.3,1.8-3.2,2.6-5.6,2.6
						c-2.2,0-4-0.7-5.2-2s-1.9-2.8-1.9-4.6c0-1.2,0.3-2.4,0.9-3.4s1.4-1.8,2.5-2.4s2.3-0.8,3.7-0.8c1.2,0,2.4,0.3,3.4,0.8
						C280.8,88,281.6,88.7,282.2,89.6z"/>
					<path class="st2" d="M289.7,86.7c1.2,0,2.3,0.3,3.3,0.8c1,0.6,1.9,1.4,2.4,2.4c0.6,1,0.8,2.1,0.8,3.3s-0.3,2.3-0.8,3.3
						s-1.4,1.8-2.4,2.4s-2.2,0.8-3.4,0.8c-1.8,0-3.3-0.7-4.6-1.9c-1.2-1.3-1.9-2.8-1.9-4.6c0-2,0.8-3.6,2.2-4.9
						C286.6,87.3,288.1,86.7,289.7,86.7z M289.8,89.7c-0.9,0-1.8,0.4-2.4,1c-0.7,0.7-0.9,1.5-0.9,2.6s0.3,2,0.9,2.6
						c0.7,0.7,1.4,1,2.4,1c0.9,0,1.8-0.4,2.4-1c0.7-0.7,0.9-1.6,0.9-2.6s-0.3-2-0.9-2.6C291.6,90,290.8,89.7,289.8,89.7z"/>
					<path class="st2" d="M297.7,87.1h3.1v1.4c0.6-0.6,1.1-1,1.8-1.3s1.4-0.5,2.2-0.5s1.5,0.2,2.2,0.6s1.1,0.9,1.5,1.7
						c0.5-0.8,1.1-1.3,1.8-1.7c0.8-0.4,1.5-0.6,2.4-0.6s1.7,0.2,2.4,0.7c0.7,0.4,1.1,0.9,1.4,1.6s0.5,1.8,0.5,3.3v7.3h-3.4v-6.3
						c0-1.4-0.2-2.4-0.6-2.9c-0.4-0.5-0.8-0.8-1.6-0.8c-0.6,0-1,0.2-1.4,0.5c-0.5,0.3-0.8,0.8-0.9,1.2c-0.2,0.6-0.3,1.4-0.3,2.6v5.6
						h-3.2v-6c0-1.1-0.1-2-0.3-2.4c-0.2-0.5-0.4-0.8-0.8-1.1s-0.8-0.4-1.2-0.4c-0.6,0-1,0.2-1.4,0.5c-0.5,0.3-0.8,0.8-0.9,1.3
						c-0.2,0.6-0.3,1.4-0.3,2.6v5.6h-3.1L297.7,87.1L297.7,87.1z"/>
				</g>
			</g>
		</g>
		
			<linearGradient id="SVGID_3_" gradientUnits="userSpaceOnUse" x1="53.9289" y1="151.7394" x2="53.3722" y2="483.556" gradientTransform="matrix(0.9412 0 0 0.9412 -30.5995 -140.3221)">
			<stop  offset="0" style="stop-color:#FFFFFF"/>
			<stop  offset="1" style="stop-color:#000000"/>
		</linearGradient>
		<path class="st3" d="M40.2,44.3c0,10.5-7.9,18.3-18.6,18.3h-7.5L14,76.4L0.2,74.8L0,30.3l15.2-5.5C33.4,19,40.2,33.7,40.2,44.3z
			 M26.6,43.1c0-3.6-2.2-6.8-5.8-6.8L14,38.2v12.2h5.8C23.6,50.5,26.6,46.7,26.6,43.1z"/>
		
			<linearGradient id="SVGID_4_" gradientUnits="userSpaceOnUse" x1="129.4523" y1="136.3659" x2="132.7166" y2="231.9644" gradientTransform="matrix(0.9412 0 0 0.9412 -30.5995 -140.3221)">
			<stop  offset="0" style="stop-color:#FAACD5"/>
			<stop  offset="2.436924e-02" style="stop-color:#F9A5D0"/>
			<stop  offset="0.1783" style="stop-color:#F67BB7"/>
			<stop  offset="0.3357" style="stop-color:#F459A2"/>
			<stop  offset="0.4949" style="stop-color:#F23E91"/>
			<stop  offset="0.6569" style="stop-color:#F02B85"/>
			<stop  offset="0.823" style="stop-color:#EF207E"/>
			<stop  offset="1" style="stop-color:#EF1C7C"/>
		</linearGradient>
		<path class="st4" d="M145.6,94l-18.2-14.3c1.1-1.3,2.2-2.7,3.1-4.2c7.2-10.8,9.7-23.8,7.1-36.6C133,16.3,112.9,0,90,0
			c-3.3,0-6.6,0.4-9.8,1C53.9,6.4,36.9,32.2,42.3,58.4C46.9,81,67,97.3,89.9,97.3c3.3,0,6.6-0.4,9.8-1c8.6-1.8,16.4-5.7,22.8-11.5
			l18.8,14.7c1.6,1.2,3.8,0.9,5-0.7l0,0C147.4,97.4,147.2,95.2,145.6,94z M98.2,89.3c-2.7,0.6-5.6,0.8-8.4,0.8
			c-19.6,0-36.7-13.9-40.7-33.2c-4.6-22.4,9.9-44.4,32.4-49c2.7-0.6,5.6-0.8,8.4-0.8c19.6,0,36.7,13.9,40.7,33.2
			c2.3,10.8,0.1,21.9-6,31.2C118.4,80.9,109.1,87.2,98.2,89.3z"/>
		<g>
			<path class="st5" d="M163.4,43.1c0-2.7-1.9-4.6-5.2-4.6h-5.4v9.3h5.4C161.6,47.8,163.4,45.8,163.4,43.1z"/>
			<polyline class="st5" points="190.7,30.2 205.2,50.5 205.2,30.8 			"/>
			
				<linearGradient id="SVGID_5_" gradientUnits="userSpaceOnUse" x1="201.8945" y1="149.3132" x2="201.3189" y2="492.4415" gradientTransform="matrix(0.9412 0 0 0.9412 -30.5995 -140.3221)">
				<stop  offset="0" style="stop-color:#FFFFFF"/>
				<stop  offset="1" style="stop-color:#000000"/>
			</linearGradient>
			<path class="st6" d="M140.7,76.5c3.8-0.8,7.7-1.5,11.9-2.3l0.3-16.5h4.3l8,14.8c4-0.5,8.3-0.9,12.7-1.2l-9-16
				c4.2-2.5,6.9-6.9,6.9-12.1c0-7.4-3.9-12-10-14.8c-1.3-0.6-2.7-0.9-4.1-1.2c-7.6-1.2-14.6-2.6-20.8-4L140.7,76.5L140.7,76.5z
				 M152.8,38.4h5.4c3.3,0,5.2,2,5.2,4.6c0,2.7-1.9,4.7-5.2,4.7h-5.4V38.4z"/>
			
				<linearGradient id="SVGID_6_" gradientUnits="userSpaceOnUse" x1="242.4382" y1="149.3811" x2="241.8624" y2="492.5094" gradientTransform="matrix(0.9412 0 0 0.9412 -30.5995 -140.3221)">
				<stop  offset="0" style="stop-color:#FFFFFF"/>
				<stop  offset="1" style="stop-color:#000000"/>
			</linearGradient>
			<path class="st7" d="M205.2,30.8v19.7l-14.6-20.3c-4.2-0.3-8.4-0.6-12.3-0.9v42c3.8-0.3,7.5-0.5,11.5-0.7v-23l16.5,22.7
				c3.4,0,6.9,0.1,10.4,0.2V30.9C212.8,30.9,209,30.9,205.2,30.8z"/>
		</g>
		
			<linearGradient id="SVGID_7_" gradientUnits="userSpaceOnUse" x1="349.6153" y1="158.3312" x2="351.3015" y2="223.6668" gradientTransform="matrix(0.9412 0 0 0.9412 -30.5995 -140.3221)">
			<stop  offset="0" style="stop-color:#FAACD5"/>
			<stop  offset="2.436924e-02" style="stop-color:#F9A5D0"/>
			<stop  offset="0.1783" style="stop-color:#F67BB7"/>
			<stop  offset="0.3357" style="stop-color:#F459A2"/>
			<stop  offset="0.4949" style="stop-color:#F23E91"/>
			<stop  offset="0.6569" style="stop-color:#F02B85"/>
			<stop  offset="0.823" style="stop-color:#EF207E"/>
			<stop  offset="1" style="stop-color:#EF1C7C"/>
		</linearGradient>
		<path class="st8" d="M299.6,77.1c-15.9,0-27.3-10.9-27.3-26.1s11.4-26.1,27.3-26.1s27.2,10.8,27.2,26.1S315.5,77.1,299.6,77.1
			L299.6,77.1z M312.6,51c0-7.7-5.5-13.4-13-13.4s-13.1,5.6-13.1,13.4c0,7.7,5.6,13.4,13.1,13.4S312.6,58.9,312.6,51z"/>
		<path class="st9" d="M306.4,29.5c0,0,15.6,4,16.2,19.5c0,0.9-0.6,1.8-1.5,2l-0.4,0.1C320.2,42.5,316.1,34.7,306.4,29.5z"/>
		<path class="st9" d="M235.6,31c0,0,13.5-8.8,25.3,1.2c0.8,0.7,0.9,1.6,0.5,2.4l-0.2,0.4C254.6,29.5,246.1,27.3,235.6,31z"/>
		<path class="st9" d="M295.4,72.4c0,0-15.6-4-16.2-19.5c0-0.9,0.6-1.8,1.5-2l0.4-0.1C281.6,59.4,285.7,67.2,295.4,72.4z"/>
		<path class="st9" d="M247.5,74c0,0-16.2,0.3-20.8-14.5c-0.3-0.9,0.1-1.9,0.8-2.4l0.4-0.2C230.6,65.2,236.8,71.7,247.5,74z"/>
		
			<linearGradient id="SVGID_8_" gradientUnits="userSpaceOnUse" x1="128.0326" y1="147.0607" x2="127.4121" y2="516.8224" gradientTransform="matrix(0.9412 0 0 0.9412 -30.5995 -140.3221)">
			<stop  offset="0" style="stop-color:#FFFFFF"/>
			<stop  offset="1" style="stop-color:#000000"/>
		</linearGradient>
		<path class="st10" d="M125.5,41.2c-3.5-16.8-18.4-29.1-35.7-29.1c-2.4,0-4.9,0.3-7.3,0.8c-19.7,4-32.4,23.3-28.4,43
			C57.6,72.7,72.5,85,89.8,85c2.4,0,4.9-0.3,7.3-0.8c9.5-2,17.7-7.5,23.1-15.6S127.5,50.8,125.5,41.2z M107.1,51.4l-13.3-2l8.4,9
			l-2.4,2.3L90.9,51L89,64.1l-3.4-0.4l1.7-12L77,59.1l-2-2.7l11.2-8.2l-12.3-1.8l0.5-3.3l10.5,1.6l-8-8.7l2.4-2.3l8.9,9.7l1.9-13.1
			l3.3,0.5l-1.9,13.4l10.4-7.6l2,2.7l-9.3,6.8l12.8,1.9L107.1,51.4z"/>
	</g>
</g>
</svg>
