<svg xmlns="http://www.w3.org/2000/svg" width="151" height="33"><path d="M131.2 7.9h3.4c3.6 0 5.2 1.5 6.1 2.9 1.1 1.7 1.5 4 1.5 5.7 0 4.5-1.7 8.6-7.6 8.6h-3.4V7.9zm-7.3 4.7h-11V1h-7.3v31h7.3V19.5l11-.1v12.5l10.8.1c11.8 0 15.8-7.1 15.8-15.6 0-3.4-.7-6.7-2.7-9.7-4-5.7-10.2-5.7-13.7-5.7h-10.2v11.6z" fill="#FF4171"/><path d="M7.7 15.6v-8h4.4c2.8 0 4.2 1.6 4.2 4 0 2.3-1.4 4-4.4 4H7.7zM60 15V7.6h2.8c4.2 0 5.2 1.3 5.2 3.7 0 2.4-1.7 3.7-4.4 3.7H60zm-31.6 1.3c0-5 3.9-8.8 8.8-8.8s8.9 3.8 8.9 8.8c0 5.3-4 9.2-8.9 9.2s-8.8-3.9-8.8-9.2zM76.5 32h7.2V17.6c0-2-.1-4.8-.1-4.8s1.3 2.7 2.5 4.8L95.2 32h7.3V1h-7.2v19.6s-1.2-3.1-2.5-5.1L83.8 1h-7.3v28.6l-4.6-8.4c-.7-1.3-1.1-1.9-1.1-1.9v-.1c2.9-1.5 4.4-5.1 4.4-8.4 0-4.5-2.1-7.7-5.4-9-1.2-.6-2.8-.8-6.3-.8H52.8v11C51.1 5.2 45.3.4 37.2.4c-6.5 0-11.5 3.1-14.1 7.9C22 3.9 18.6 1 13.7 1H.5v31h7.2v-9.8h6c3.3 0 5.9-1.3 7.6-3.6 1 8 7 14 15.9 14 8.1 0 13.9-5 15.6-11.9V32H60V21.6h3.9L69.7 32h6.8z" fill="#00B1FF"/></svg>