<?xml version="1.0" encoding="UTF-8"?>
<svg xmlns="http://www.w3.org/2000/svg" width="293.6mm" height="57.331mm" style="fill-rule:evenodd" viewBox="0 0 29360 5733.1" >
  <path fill="#fff" d="M5078.11 3545.19l0 614.01 1377.47 0 0 -614.01 0 -1372.24 0 -1372.27 786.42 0 0 1372.27 0 1372.24 0 1372.19 -2950.33 0 0 -1372.19 0 -1372.24 0 -1372.27 786.44 0 0 1372.27 0 1372.24zm-4478.63 -2744.51l2807.63 0 0 1372.27 0 591.49 -464.56 464.57 162.3 316.18 672.4 1310.14 0 62.09 -789.92 0 -704.3 -1372.23 -162.31 -316.18 -790.14 0 0 316.18 0 1372.23 -731.1 0 0 -1372.23 0 -316.18 0 -1056.06 0 -1372.27zm2108.58 1372.27l0 -626.44 -1377.48 0 0 626.44 0 319.91 1377.48 0 0 -319.91zm5093.47 -1372.27l2807.63 0 0 745.83 -2056.02 0 0 626.44 0 319.91 2056.02 0 0 1052.33 0 1372.19 -2807.63 0 0 -742.02 2076.53 0 0 -630.17 0 -316.18 -2076.53 0 0 -1056.06 0 -1372.27z"/>
  <g id="_1537516385584">
   <path fill="red" d="M5078.1 3545.2l0 613.99 1377.48 0 0 -613.99 786.43 0 0 1372.18 -2950.34 0 0 -1372.18 786.43 0zm-4478.62 0l731.1 0 0 1372.23 -731.1 0 0 -1372.23zm1683.55 0l821.82 0 672.4 1310.12 0 62.11 -789.93 0 -704.29 -1372.23zm7595.03 0l731.1 0 0 1372.18 -2807.63 0 0 -742.03 2076.53 0 0 -630.15z"/>
   <path fill="#00539f" d="M5078.1 2172.96l0 1372.24 -786.43 0 0 -1372.24 786.43 0zm1377.48 1372.24l0 -1372.24 786.43 0 0 1372.24 -786.43 0zm-5856.1 -1372.24l731.1 0 0 319.9 1377.48 0 0 -319.9 699.05 0 0 591.48 -464.57 464.56 162.31 316.2 -821.82 0 -162.31 -316.2 -790.14 0 0 316.2 -731.1 0 0 -316.2 0 -1056.04zm7202.05 0l751.61 0 0 319.9 2056.02 0 0 1052.34 -731.1 0 0 -316.2 -2076.53 0 0 -1056.04z"/>
   <path fill="#D5D5D5" d="M5078.1 800.68l0 1372.28 -786.43 0 0 -1372.28 786.43 0zm1377.48 1372.28l0 -1372.28 786.43 0 0 1372.28 -786.43 0zm-5856.1 -1372.28l2807.63 0 0 1372.28 -699.05 0 0 -626.45 -1377.48 0 0 626.45 -731.1 0 0 -1372.28zm7202.05 0l2807.63 0 0 745.83 -2056.02 0 0 626.45 -751.61 0 0 -1372.28z"/>
  </g>
  <path fill="#222" d="M10809.31 798.95l789.92 0 1656.74 3227.9 0 -3227.9 731.1 0 0 4116.76 -274.91 0 -821.77 0 -2081.08 -4054.65 0 -62.11zm15120.74 0l2807.63 0 0 745.89 -2056.02 0 0 946.35 2056.02 0 0 2424.52 -2807.63 0 0 -742.03 2076.53 0 0 -946.35 -2076.53 0 0 -2428.38zm-2602.51 758.19l1310.88 0 0 2600.38 -1310.88 0 0 -2600.38zm-748.38 -758.19l2807.64 0 0 4116.76 -2807.64 0 0 -4116.76zm-3364.92 0l2807.63 0 0 745.89 -2076.53 0 0 946.35 2076.53 0 0 736.14 -2076.53 0 0 946.35 2076.53 0 0 742.03 -2807.63 0 0 -4116.76zm-2616.5 758.19l895.37 0 415.5 415.49 0 1769.45 -415.44 415.44 -895.43 0 0 -796.07 -777.58 -656.86 0 2211.12 1948.72 0 858.91 -858.92 0 -2398.92 -858.91 -858.92 -1948.72 -0.05 0 1109.67 777.58 1032.67 0 -1384.1zm-1333.92 677.48l0 2681.09 -731.11 0 0 -2994.05 193.52 -141.17 537.59 454.13z"/>
  <path fill="red" d="M14733.7 8.39l255.74 792.15 832.42 -1.59 -674.36 487.99 1345.37 1786.67 -1759.17 -1486.06 -672.49 490.58 258.75 -791.19 -674.36 -487.99 832.37 1.59 255.73 -792.15z"/>
</svg>
