<?xml version="1.0" encoding="utf-8"?>
<!-- Generator: Adobe Illustrator 16.0.0, SVG Export Plug-In . SVG Version: 6.00 Build 0)  -->
<!DOCTYPE svg PUBLIC "-//W3C//DTD SVG 1.1//EN" "http://www.w3.org/Graphics/SVG/1.1/DTD/svg11.dtd">
<svg version="1.1" xmlns="http://www.w3.org/2000/svg" xmlns:xlink="http://www.w3.org/1999/xlink" x="0px" y="0px" width="208px"
	 height="34px" viewBox="0 0 208 34" enable-background="new 0 0 208 34" xml:space="preserve">
<g id="stileproject_1_" enable-background="new    ">
	<g id="stileproject">
		<g>
			<path fill="#FFFFFF" d="M54.123,11.705c0-2.987,1.116-5.472,4.428-5.472c3.275,0,4.391,2.52,4.391,5.508v0.504h0.792v-0.468
				c0-3.456-1.404-6.264-5.219-6.264c-3.636,0.036-5.184,2.556-5.184,6.228c0,6.947,9.647,6.731,9.647,13.103
				c0,3.06-1.188,5.471-4.5,5.471s-4.5-2.411-4.5-5.471v-1.26h-0.756v1.224c0,3.491,1.44,6.263,5.255,6.263
				c3.852,0,5.292-2.771,5.292-6.263C63.77,17.968,54.123,18.148,54.123,11.705z M66.723,6.449h5.472v24.441h0.792V6.449h5.507
				V5.693H66.723V6.449z M81.591,30.891h0.792V5.693h-0.792V30.891z M86.955,5.693h-0.792v25.197h9.251v-0.756h-8.459V5.693z
				 M108.662,6.449V5.693h-9.611v25.197h9.611v-0.756h-8.819V18.473h7.415v-0.721h-7.415V6.449H108.662z"/>
		</g>
	</g>
</g>
<g id="stileproject_copy_1_" enable-background="new    ">
	<g id="stileproject_copy">
		<g>
			<path fill="#F30B2C" d="M118.203,5.693h-5.832v25.197h3.959v-9.467h1.873c3.959,0,5.902-2.195,5.902-6.228v-3.275
				C124.105,7.89,122.162,5.693,118.203,5.693z M120.146,15.448c0,1.8-0.684,2.376-1.943,2.376h-1.873V9.293h1.873
				c1.26,0,1.943,0.576,1.943,2.376V15.448z M138.722,23.943c0-2.628-0.647-4.535-2.628-5.363c1.764-0.828,2.592-2.52,2.592-5.111
				v-1.979c0-3.888-1.764-5.796-5.867-5.796h-5.975v25.197h3.959V20.632h1.367c1.801,0,2.592,0.864,2.592,3.204v3.959
				c0,2.052,0.145,2.448,0.36,3.096h4.032c-0.396-0.936-0.433-1.836-0.433-3.06V23.943z M134.727,14.369
				c0,2.016-0.9,2.663-2.376,2.663h-1.548V9.293h1.908c1.403,0,2.016,0.792,2.016,2.592V14.369z M147.902,5.406
				c-3.887,0-6.012,2.304-6.012,6.335v13.103c0,4.031,2.125,6.335,6.012,6.335c3.888,0,6.012-2.304,6.012-6.335V11.741
				C153.914,7.71,151.79,5.406,147.902,5.406z M149.954,25.096c0,1.8-0.792,2.483-2.052,2.483s-2.052-0.684-2.052-2.483V11.489
				c0-1.8,0.792-2.483,2.052-2.483s2.052,0.684,2.052,2.483V25.096z M159.927,24.915c0,1.944-1.008,2.412-2.268,2.412
				c-0.433,0-0.937,0-1.368-0.036v3.6c0.648,0.072,1.188,0.072,1.908,0.072c2.987,0,5.688-1.296,5.688-6.336V5.693h-3.96V24.915z
				 M167.487,30.891h10.798v-3.6h-6.838v-7.379h5.435v-3.6h-5.435v-7.02h6.838v-3.6h-10.798V30.891z M187.215,5.406
				c-3.888,0-5.904,2.304-5.904,6.335v13.103c0,4.031,2.017,6.335,5.904,6.335c3.887,0,5.902-2.304,5.902-6.335v-3.348h-3.743v3.6
				c0,1.8-0.792,2.447-2.052,2.447s-2.052-0.647-2.052-2.447V11.489c0-1.8,0.792-2.483,2.052-2.483s2.052,0.684,2.052,2.483v2.699
				h3.743v-2.447C193.117,7.71,191.102,5.406,187.215,5.406z M195.279,5.693v3.6h4.14v21.598h3.96V9.293h4.139v-3.6H195.279z"/>
		</g>
	</g>
</g>
<g id="Shape_3_1_" enable-background="new    ">
	<g id="Shape_3">
		<g>
			<linearGradient id="SVGID_1_" gradientUnits="userSpaceOnUse" x1="11.5098" y1="26.334" x2="43.9654" y2="2.7536">
				<stop  offset="0" style="stop-color:#760011"/>
				<stop  offset="1" style="stop-color:#F30B2C"/>
			</linearGradient>
			<path fill="url(#SVGID_1_)" d="M46.987,10.864c-0.125-3.8-1.366-6.071-2.592-7.444C42.33,1.105,39.122-0.057,36.021,0H18.476
				c1.528,0.671,3.057,1.341,4.586,2.012c-1.196,2.28-2.393,4.561-3.589,6.841c-3.421-2.675-6.95-2.775-8.574-1.208
				c-0.542,0.524-1.344,1.7-0.997,2.817c0.576,1.853,7.25,3.202,8.175,3.621c2.603,1.177,4.204,2.602,4.985,3.822
				c0.893,1.397,1.506,3.322,1.396,6.035c-0.11,2.704-1.034,5.457-2.991,7.444C20.253,32.616,18.75,33.5,17.08,34h13.16V22.733
				c2.005,0.069,3.974,0.069,5.981,0c2.972-0.103,4.813-0.358,6.58-1.609C46.784,18.304,47.054,12.88,46.987,10.864z M36.819,14.888
				c-0.781,0.633-1.783,0.895-2.792,0.805h-3.788V7.041h3.988c1.051,0.046,2.049,0.461,2.791,1.207
				c0.844,0.849,1.197,2.045,1.196,3.22C38.214,12.524,37.923,13.993,36.819,14.888z"/>
		</g>
	</g>
</g>
<g id="Shape_3_copy_1_" enable-background="new    ">
	<g id="Shape_3_copy">
		<g>
			<path fill="#FFFFFF" d="M14.089,22.13c-1.819-1.714-3.774-1.451-6.58-2.414c-2.71-0.93-4.535-2.533-5.184-3.42
				c-0.854-1.167-1.376-2.533-1.595-4.023v16.095c0.798-1.476,1.595-2.951,2.393-4.427c3.223,2.76,7.448,4.762,10.169,3.22
				c0.521-0.295,2.008-1.306,1.994-2.817C15.279,23.713,14.995,22.983,14.089,22.13z"/>
		</g>
	</g>
</g>
</svg>
