<svg viewBox="0 0 157 49"
    fill="none" xmlns="http://www.w3.org/2000/svg">
    <path
        d="M70.2228 17.4053L70.1752 33.9138C70.1752 34.4716 69.9515 34.7823 69.5055 34.8465C68.9946 34.91 67.8306 34.9417 66.0122 34.9417C64.2572 34.9417 63.0373 34.8783 62.3517 34.7505C61.8249 34.6545 61.5619 34.3122 61.5619 33.7219C61.5619 32.3508 61.5861 30.2852 61.6337 27.5257C61.6813 24.767 61.7055 22.7013 61.7055 21.3295C61.7055 19.4634 60.7562 18.5307 58.8584 18.5307C58.2205 18.5307 57.4707 18.7862 56.6091 19.2964C55.6681 19.8549 55.1972 20.4369 55.1972 21.0431V26.952C55.1972 27.7177 55.2131 28.8703 55.2448 30.4091C55.2766 31.9487 55.2924 33.1006 55.2924 33.8662C55.2924 34.4558 55.0445 34.783 54.551 34.8473C54.0567 34.9108 52.669 34.9425 50.3879 34.9425C49.0804 34.9425 48.1386 34.879 47.565 34.7513C46.9913 34.6236 46.7041 34.3447 46.7041 33.9146C46.7041 32.6547 46.7117 30.7606 46.7283 28.2316C46.7442 25.7042 46.7517 23.8093 46.7517 22.5494C46.7517 17.3343 46.6958 13.0201 46.5847 9.60607C46.5371 8.41037 46.497 7.21392 46.4645 6.01746C46.3851 4.62978 46.2415 3.4424 46.0344 2.45304C45.9868 2.24594 45.9626 2.09402 45.9626 1.99804C45.9626 1.7592 46.0821 1.59972 46.3217 1.51961C46.816 1.376 47.5423 1.28833 48.4992 1.25583C49.775 1.20821 50.5164 1.16891 50.7243 1.13641L55.0543 0.633789C55.3091 0.633789 55.4375 0.801581 55.4375 1.13641C55.4375 1.64734 55.405 2.34117 55.3416 3.21792C55.2781 4.23903 55.2463 4.93287 55.2463 5.29944C55.1511 8.90467 55.1027 11.7511 55.1027 13.8409C55.1027 14.1599 55.1821 14.3193 55.3416 14.3193C55.3733 14.3193 55.7799 14.0404 56.5614 13.4819C57.4866 12.8289 58.3716 12.3096 59.2174 11.9272C60.4773 11.3686 61.6972 11.0897 62.8778 11.0897C64.9192 11.0897 66.6251 11.6241 67.9977 12.6928C69.4813 13.8409 70.2228 15.4115 70.2228 17.4053Z"
        fill="#341527" />
    <path
        d="M98.1668 22.7882C98.1668 24.0164 98.2386 25.8432 98.3822 28.2671C98.525 30.6917 98.5968 32.5095 98.5968 33.7218C98.5968 34.3605 98.3179 34.7028 97.7601 34.7505C95.7822 34.8933 93.5178 34.9659 90.9654 34.9659C90.663 34.9659 90.459 34.5078 90.3554 33.5903C90.2511 32.6735 90.1279 32.2071 89.9851 32.1905C89.8566 32.254 89.6888 32.39 89.4825 32.5971C87.6957 34.3998 85.782 35.3007 83.7405 35.3007C80.6304 35.3007 78.0545 34.0725 76.0123 31.6161C74.082 29.3192 73.1176 26.5763 73.1176 23.386C73.1176 19.7014 74.1137 16.7348 76.1083 14.4863C78.1823 12.1576 81.0211 10.9929 84.6256 10.9929C87.1296 10.9929 89.1076 11.8704 90.5587 13.6247C90.623 13.704 90.6789 13.7441 90.7265 13.7441C90.8701 13.7441 91.0334 13.3571 91.2171 12.5839C91.4 11.8107 91.6192 11.4237 91.8746 11.4237C92.4642 11.4237 93.5896 11.5915 95.2486 11.9264C96.8275 12.2453 97.9597 12.5159 98.6452 12.7396C98.884 12.8348 99.0042 12.9626 99.0042 13.1221C99.0042 13.1863 98.9808 13.3541 98.9324 13.6247C98.4215 16.5119 98.1668 19.5669 98.1668 22.7882ZM90.4635 22.9325C90.4635 21.5766 90.0365 20.4565 89.1839 19.5714C88.3298 18.6856 87.2173 18.2435 85.8462 18.2435C84.4744 18.2435 83.3664 18.6818 82.5214 19.5586C81.6756 20.4361 81.2531 21.5607 81.2531 22.9325C81.2531 24.2242 81.6991 25.333 82.5924 26.2574C83.4858 27.1832 84.5697 27.645 85.8462 27.645C87.2014 27.645 88.3109 27.2029 89.1711 26.3171C90.0327 25.432 90.4635 24.3036 90.4635 22.9325Z"
        fill="#341527" />
    <path
        d="M126.709 34.0565C126.709 34.4866 126.485 34.7345 126.038 34.798C125.592 34.8614 124.427 34.8932 122.546 34.8932C120.536 34.8932 119.292 34.8456 118.813 34.7503C118.335 34.6544 118.096 34.3278 118.096 33.7693C118.096 33.0203 118.12 31.8881 118.168 30.3719C118.216 28.8573 118.241 27.716 118.241 26.9511C118.241 26.3616 118.225 25.4803 118.193 24.308C118.16 23.135 118.145 22.2545 118.145 21.6642C118.145 19.4791 117.196 18.3862 115.298 18.3862C114.676 18.3862 113.95 18.6575 113.121 19.1994C112.227 19.8064 111.781 20.4042 111.781 20.9938V33.9137C111.781 34.4397 111.534 34.7352 111.04 34.7987C110.481 34.8622 109.342 34.8939 107.619 34.8939C105.753 34.8939 104.541 34.8463 103.982 34.7511C103.488 34.6717 103.241 34.4087 103.241 33.9613C103.241 32.7172 103.249 30.8435 103.265 28.3395C103.281 25.8355 103.288 23.9535 103.288 22.6936C103.288 18.7218 102.978 15.604 102.356 13.3389C102.323 13.1953 102.308 13.0751 102.308 12.9798C102.308 12.7244 102.427 12.549 102.667 12.4538C103.672 12.3427 105.012 12.1666 106.686 11.9277C109.222 11.4334 110.649 11.1863 110.969 11.1863C111.143 11.1863 111.28 11.7244 111.375 12.8015C111.471 13.8778 111.607 14.4167 111.782 14.4167C111.607 14.4167 112.464 13.8626 114.353 12.7539C116.244 11.6451 117.898 11.0911 119.318 11.0911C121.343 11.0911 123.034 11.5695 124.39 12.5264C125.905 13.6268 126.663 15.1573 126.663 17.1194V24.7517C126.663 25.7886 126.671 27.3396 126.687 29.4052C126.7 31.4693 126.709 33.0203 126.709 34.0565Z"
        fill="#341527" />
    <path
        d="M156.064 0.801486C156.064 0.450788 156 0.976835 155.873 2.38114C155.697 4.15126 155.562 6.41644 155.466 9.17516C155.338 12.302 155.275 15.8581 155.275 19.845C155.275 26.4327 155.458 31.1218 155.825 33.913C155.857 34.2153 155.873 34.4073 155.873 34.4867C155.873 34.662 155.753 34.7655 155.514 34.798C154.939 34.8774 152.825 34.9175 149.173 34.9175C148.311 34.9175 147.817 34.7497 147.689 34.4149C147.658 33.8087 147.626 33.2025 147.594 32.5971C147.578 32.4694 147.514 32.3417 147.403 32.2139C147.307 32.2615 147.187 32.3575 147.043 32.5011C145.321 34.1919 143.167 35.0369 140.584 35.0369C137.218 35.0369 134.522 33.8563 132.497 31.4959C130.567 29.2466 129.603 26.4085 129.603 22.9786C129.603 19.5011 130.551 16.6381 132.45 14.3895C134.46 11.9974 137.171 10.8009 140.585 10.8009C142.993 10.8009 144.867 11.5666 146.206 13.0978C146.429 13.3533 146.589 13.4803 146.685 13.4803C146.828 13.4803 146.9 13.2739 146.9 12.859C146.9 11.6308 146.868 9.79644 146.804 7.35667C146.741 4.91614 146.709 3.08934 146.709 1.87777C146.709 1.41521 146.836 1.15219 147.091 1.08794C148.113 1.04033 149.516 0.945092 151.302 0.800731C154.492 0.402416 155.904 0.202881 155.537 0.202881C155.888 0.203637 156.064 0.403172 156.064 0.801486ZM147.044 22.7881C147.044 21.5282 146.605 20.424 145.729 19.4747C144.851 18.5261 143.791 18.0507 142.547 18.0507C141.238 18.0507 140.198 18.5261 139.424 19.4747C138.651 20.424 138.264 21.5607 138.264 22.8841C138.264 24.1758 138.655 25.2687 139.437 26.1621C140.234 27.119 141.271 27.5966 142.547 27.5966C143.823 27.5966 144.891 27.1182 145.752 26.1621C146.614 25.2045 147.044 24.0806 147.044 22.7881Z"
        fill="#341527" />
    <path fill-rule="evenodd" clip-rule="evenodd"
        d="M17.6287 17.5163C13.7189 12.1954 9.80303 6.79581 5.74581 1.589C5.29232 0.994175 5.20238 0.622314 3.77238 0.622314H1.23511C0.176965 0.706966 -0.0936174 1.15365 0.579814 2.03644C4.49569 7.18581 8.42139 12.2989 12.239 17.5163C8.39041 22.7783 4.40424 27.9027 0.430161 33.0732C-0.241759 33.956 0.0288237 34.402 1.08545 34.4881H3.62273C5.05348 34.4881 5.14418 34.1147 5.59616 33.5192C9.66245 28.1967 13.669 22.9075 17.6287 17.5163Z"
        fill="#341527" />
    <path fill-rule="evenodd" clip-rule="evenodd"
        d="M20.6089 13.9609L23.4432 17.5155L20.6089 21.0724L17.8146 24.5763L13.0386 30.4573L9.3291 34.8418H13.5322C14.7415 34.8221 15.4686 34.646 16.0649 33.7368L18.9809 30.0756C19.1471 29.8708 19.5477 29.3062 19.9181 28.8527C20.0284 28.7189 20.1357 28.595 20.2332 28.4929C20.3935 28.3267 20.5295 28.2186 20.6104 28.2209C20.9928 28.2322 24.5066 32.6809 25.595 33.9855C25.926 34.3762 26.2518 34.7821 27.2714 34.7821H38.3683H40.4468C41.9667 34.8531 42.0083 33.6975 41.5238 33.0785C37.5014 27.9389 33.6671 22.6565 29.6031 17.5155C33.6671 12.3759 37.5029 7.09431 41.5238 1.9525C42.0083 1.335 41.9667 0.179359 40.4468 0.248894H38.3683H27.2714C26.251 0.248894 25.926 0.657035 25.595 1.04552C24.5074 2.35233 20.9951 6.80257 20.6104 6.81239C20.559 6.8139 20.4842 6.76931 20.3942 6.69449C19.68 6.08303 18.3618 4.18064 17.6756 3.31977L16.0649 1.2957C15.4686 0.385696 14.7422 0.208837 13.5322 0.189941H9.52032L13.0379 4.57442L20.6089 13.9609ZM23.4341 24.3397L24.9752 22.3595L26.4105 20.5183L34.0269 30.3968H33.3678H28.2872C26.6305 28.4083 25.1302 26.3003 23.4341 24.3397ZM25.0674 12.5551L23.4077 10.4252L23.4145 10.4169C25.1014 8.47216 26.6373 6.61815 28.2872 4.63716H33.3678H34.0269L26.502 14.397L25.0674 12.5551Z"
        fill="#F15651" />
    <path
        d="M30.5623 42.1454H31.3793C31.3793 42.4953 31.3793 42.846 31.3672 43.2655C31.7293 42.4485 32.5811 41.9466 33.7012 41.97C35.6504 41.9927 36.339 43.3237 36.339 44.852V48.4239H35.4872V45.0281C35.4872 43.6736 34.8803 42.7515 33.4684 42.7757C32.1729 42.7878 31.4254 43.5693 31.4254 44.8761V48.4239H30.5615V42.1454H30.5623Z"
        fill="#F15651" />
    <path
        d="M39.558 45.5306C39.6049 47.1057 40.9464 47.8646 42.0091 47.8525C42.9781 47.8525 43.7596 47.374 44.1677 46.557H45.0664C44.7746 47.2342 44.331 47.7474 43.7936 48.0853C43.2683 48.4239 42.6501 48.5992 42.0084 48.5992C39.8256 48.5992 38.6934 46.8601 38.6934 45.2963C38.6934 43.4529 40.1173 41.9707 41.9963 41.9707C42.8836 41.9707 43.7006 42.2859 44.2955 42.8573C45.0195 43.5579 45.3695 44.5269 45.2758 45.5306H39.558ZM44.4247 44.842C44.3665 43.7446 43.3046 42.6706 42.0091 42.7061C40.6547 42.7061 39.6517 43.6985 39.5694 44.842H44.4247Z"
        fill="#F15651" />
    <path
        d="M48.0526 45.5306C48.0995 47.1057 49.4411 47.8646 50.5037 47.8525C51.4727 47.8525 52.2542 47.374 52.6631 46.557H53.5618C53.27 47.2342 52.8263 47.7474 52.2897 48.0853C51.7644 48.4239 51.1454 48.5992 50.5037 48.5992C48.3209 48.5992 47.1887 46.8601 47.1887 45.2963C47.1887 43.4529 48.6127 41.9707 50.4916 41.9707C51.379 41.9707 52.1952 42.2859 52.7908 42.8573C53.5149 43.5579 53.8648 44.5269 53.7711 45.5306H48.0526ZM52.9193 44.842C52.8611 43.7446 51.7992 42.6706 50.5037 42.7061C49.1493 42.7061 48.1463 43.6985 48.064 44.842H52.9193Z"
        fill="#F15651" />
    <path
        d="M62.4403 48.4245H61.6119V47.1291C61.1682 47.9574 60.3278 48.5991 59.021 48.5991C57.0135 48.5991 55.7762 47.0354 55.7762 45.2735C55.7762 43.4059 57.1307 41.9706 59.0089 41.9706C60.386 41.9706 61.2967 42.7642 61.5764 43.4173V42.087V39.7878H62.4403V48.4245ZM56.6281 45.2849C56.6401 46.5456 57.5146 47.7942 59.1487 47.7942C59.8493 47.7942 60.491 47.5145 60.9347 47.0588C61.3897 46.5917 61.658 45.95 61.6346 45.2494C61.6346 44.5374 61.3663 43.9305 60.9105 43.4868C60.4676 43.0318 59.8372 42.7635 59.1366 42.7635C57.6892 42.7635 56.6273 43.8602 56.6273 45.2728V45.2849H56.6281Z"
        fill="#F15651" />
    <path
        d="M76.1386 48.4244H75.2747V47.1289C74.785 48.0744 73.8274 48.599 72.7072 48.599C70.6643 48.599 69.4504 47.0118 69.4504 45.284C69.4504 43.4405 70.7928 41.9697 72.7072 41.9697C74.0496 41.9697 74.9717 42.7512 75.2747 43.464V42.1451H76.1386V48.4244ZM70.303 45.2961C70.3151 46.4283 71.0966 47.794 72.8236 47.794C73.9324 47.794 74.7495 47.1516 75.0881 46.2658C75.2286 45.9627 75.2982 45.612 75.2982 45.2734C75.3103 44.9227 75.24 44.5728 75.1002 44.2697C74.7502 43.4058 73.9097 42.7641 72.801 42.7641C71.3536 42.7641 70.303 43.8842 70.303 45.2847V45.2961Z"
        fill="#F15651" />
    <path
        d="M83.5109 39.7878H84.3748V42.087V43.1724C84.7602 42.344 85.7292 41.9472 86.6158 41.9706C87.6081 41.9706 88.2619 42.2858 88.6942 42.8345C89.1251 43.3833 89.2891 44.1413 89.2891 45.04V48.4253H88.4373V45.0755C88.4373 44.3983 88.2967 43.8269 87.9808 43.418C87.6429 43.0099 87.1524 42.7763 86.4056 42.7763C85.7171 42.7763 85.2039 43.0212 84.8766 43.3946C84.5388 43.768 84.3748 44.2819 84.3748 44.8533V48.4253H83.5109V39.7878Z"
        fill="#F15651" />
    <path
        d="M98.4133 48.4244H97.5494V47.1289C97.0596 48.0744 96.102 48.599 94.9819 48.599C92.9397 48.599 91.7251 47.0118 91.7251 45.284C91.7251 43.4405 93.0674 41.9697 94.9819 41.9697C96.3242 41.9697 97.2456 42.7512 97.5494 43.464V42.1451H98.4133V48.4244ZM92.5777 45.2961C92.5897 46.4283 93.3705 47.794 95.0983 47.794C96.2071 47.794 97.0241 47.1516 97.362 46.2658C97.5025 45.9627 97.5728 45.612 97.5728 45.2734C97.5842 44.9227 97.5139 44.5728 97.3733 44.2697C97.0234 43.4058 96.1836 42.7641 95.0749 42.7641C93.6267 42.7641 92.5769 43.8842 92.5769 45.2847V45.2961H92.5777Z"
        fill="#F15651" />
    <path
        d="M101.257 42.1454H102.075C102.075 42.4953 102.075 42.846 102.063 43.2655C102.425 42.4485 103.276 41.9466 104.397 41.97C106.345 41.9927 107.035 43.3237 107.035 44.852V48.4239H106.183V45.0281C106.183 43.6736 105.575 42.7515 104.163 42.7757C102.867 42.7878 102.12 43.5693 102.12 44.8761V48.4239H101.257V42.1454H101.257Z"
        fill="#F15651" />
    <path
        d="M116.148 48.4245H115.319V47.1291C114.875 47.9574 114.035 48.5991 112.727 48.5991C110.72 48.5991 109.482 47.0354 109.482 45.2735C109.482 43.4059 110.837 41.9706 112.715 41.9706C114.092 41.9706 115.003 42.7642 115.283 43.4173V42.087V39.7878H116.147V48.4245H116.148ZM110.335 45.2849C110.348 46.5456 111.222 47.7942 112.856 47.7942C113.558 47.7942 114.198 47.5145 114.642 47.0588C115.097 46.5917 115.365 45.95 115.342 45.2494C115.342 44.5374 115.074 43.9305 114.619 43.4868C114.176 43.0318 113.545 42.7635 112.844 42.7635C111.397 42.7635 110.335 43.8602 110.335 45.2728V45.2849Z"
        fill="#F15651" />
    <path
        d="M120.791 46.2184C120.813 45.4368 120.977 44.7717 121.911 43.8844C122.506 43.2775 122.949 42.8807 122.972 42.1574C122.972 41.27 122.319 40.5354 121.338 40.5354C120.568 40.5354 119.798 41.0017 119.646 41.982C119.623 42.0878 119.623 42.1921 119.623 42.2972H118.678C118.678 42.1921 118.678 42.1105 118.69 42.0175C118.841 40.3714 120.207 39.6367 121.374 39.6367C122.833 39.6367 123.953 40.7342 123.953 42.0878C123.953 43.0802 123.23 43.7446 122.587 44.3515C121.735 45.1685 121.712 45.7528 121.701 46.2191H120.791V46.2184ZM121.689 48.4246H120.791V47.1412H121.689V48.4246Z"
        fill="#F15651" />
    <path d="M0.0635986 44.5828H25.564" stroke="#341527" stroke-width="2"
        stroke-miterlimit="10" />
    <path d="M127.545 44.5828H153.044" stroke="#341527" stroke-width="2"
        stroke-miterlimit="10" />
</svg>