<svg xmlns="http://www.w3.org/2000/svg" width="440" height="91.128" viewBox="0 0 440 91.128"><title>logo</title><path d="M181.617,49.333H164.929v19.1H156V22.8h8.931v18.58h16.688V22.8h8.932V68.433h-8.932Z" transform="translate(0 -0.055)" fill="#4c4d4e"/><path d="M222.681,58.235H208.667l-3.456,10.1H196.28L212.708,22.38h6.584L235.72,68.339h-9.388Zm-11.733-7.171h9.779l-2.8-10.264-1.958-7.077h-.327L213.8,40.77Z" transform="translate(0 -0.055)" fill="#4c4d4e"/><path d="M277.5,44.955l.045-9.212h-.47l-3.3,7.008-8.323,17.314h-2.868L252.932,42.3l-3.523-6.674h-.477l.113,8.879V68.433H241.4V22.8h8.345l11.334,19.326,2.811,5.011h.261L266.742,42l10.667-19.2h8.316V68.433H277.5Z" transform="translate(0 -0.055)" fill="#4c4d4e"/><path d="M315.092,56.177a4.244,4.244,0,0,0-1.531-3.389,16.947,16.947,0,0,0-3.847-2.379q-2.314-1.076-5.02-2.217a25.627,25.627,0,0,1-5.02-2.8,14.266,14.266,0,0,1-3.845-4.139,11.85,11.85,0,0,1-1.533-6.324,13.849,13.849,0,0,1,1.109-5.769,10.821,10.821,0,0,1,3.161-4.074,13.577,13.577,0,0,1,4.857-2.412,23.214,23.214,0,0,1,6.259-.783,39.179,39.179,0,0,1,7.5.685,20.469,20.469,0,0,1,7.027,2.531l-2.733,7.629a26.054,26.054,0,0,0-5.6-2.337,24.431,24.431,0,0,0-6.193-.75,7.922,7.922,0,0,0-4.791,1.239,3.938,3.938,0,0,0-1.662,3.324,4.106,4.106,0,0,0,1.531,3.26,17.7,17.7,0,0,0,3.847,2.412q2.312,1.11,5.019,2.281A26.988,26.988,0,0,1,318.644,45a14.461,14.461,0,0,1,3.847,4.107,11.289,11.289,0,0,1,1.531,6.1,15.035,15.035,0,0,1-1.206,6.29,11.911,11.911,0,0,1-3.389,4.4,14.331,14.331,0,0,1-5.28,2.608,25.815,25.815,0,0,1-6.813.847,36.32,36.32,0,0,1-8.605-.912,37.935,37.935,0,0,1-4.461-1.2V58.364c1.123.568,2.952,1.161,3.711,1.463a23.725,23.725,0,0,0,2.575.848,29.759,29.759,0,0,0,3.031.652,20.458,20.458,0,0,0,3.293.26,11.488,11.488,0,0,0,6.1-1.335A4.491,4.491,0,0,0,315.092,56.177Z" transform="translate(0 -0.055)" fill="#4c4d4e"/><path d="M364.438,30.753h-13.3v37.68h-8.931V30.753H328.742l2.846-7.953h32.851Z" transform="translate(0 -0.055)" fill="#4c4d4e"/><path d="M370.7,22.8h27.053v7.953H379.633V41.379h12.13v7.953h-12.13V60.479H397.8v7.953H370.7Z" transform="translate(0 -0.055)" fill="#4c4d4e"/><path d="M407.484,23.257q1.5-.26,3.226-.49t3.456-.358c1.151-.087.815-.152,1.9-.2s2.087-.065,3-.065a51.08,51.08,0,0,1,7.746.587,17.2,17.2,0,0,1,5.54,2.021,10.8,10.8,0,0,1,3.912,3.945,12.311,12.311,0,0,1,1.467,6.29,15.137,15.137,0,0,1-2.608,9.127,14.469,14.469,0,0,1-6.657,4.2,14.326,14.326,0,0,1,3.232,3.427c.649,1.307,8.3,16.687,8.3,16.687h-9.958l-9.064-18.659-4.564-.05V68.433h-8.931ZM421.173,30.1q-1.37,0-2.706.065a10.14,10.14,0,0,0-2.053.261V43.661H420.2a9.521,9.521,0,0,0,5.932-1.695q2.216-1.7,2.216-5.607a5.9,5.9,0,0,0-1.825-4.6A7.681,7.681,0,0,0,421.173,30.1Z" transform="translate(0 -0.055)" fill="#4c4d4e"/><path d="M138.415,68.394l-9.184-15.14-9.112,15.14H109.868l13.668-22.781L109.868,22.832h10.256L129.236,37.5l9.13-14.665h10.229L134.926,45.613l13.668,22.781Z" transform="translate(0 -0.055)" fill="#e14449"/><path d="M50.325,91.135c9.762-1.787,21.307-6.251,30.426-14.21,4.735-4.134,11.644-12.063,15.091-19.047,1.526-3.091,2.617-5.626,2.635-8.61a12.931,12.931,0,0,0-.954-5.233c-2.428-5.562-5.46-7.386-9.189-10.116a12.446,12.446,0,0,1-3.479-3.139,4.369,4.369,0,0,1-.6-2.216,9.2,9.2,0,0,1,.508-2.826,34.578,34.578,0,0,0,2.06-11.481c.016-5.5-2.192-14.2-9.054-14.2a8.157,8.157,0,0,0-2.782.472A9.728,9.728,0,0,0,71,3.373c-1.348,1.518-5.349,7.566-6.733,8.154a1.232,1.232,0,0,1-.873-.02c-15.886-5.368-28.313,0-28.313,0a1.291,1.291,0,0,1-.873.02c-1.384-.588-5.384-6.636-6.733-8.154A9.729,9.729,0,0,0,23.486.527,8.157,8.157,0,0,0,20.7.055c-6.861,0-9.069,8.7-9.054,14.2a34.574,34.574,0,0,0,2.06,11.481,9.205,9.205,0,0,1,.508,2.826,4.368,4.368,0,0,1-.6,2.216,12.446,12.446,0,0,1-3.479,3.139c-3.73,2.73-6.761,4.554-9.189,10.116A12.933,12.933,0,0,0,0,49.268c.018,2.983,1.108,5.518,2.635,8.61,3.448,6.984,10.356,14.913,15.092,19.047,9.118,7.958,20.519,13.618,30.425,14.21A13.258,13.258,0,0,0,50.325,91.135Zm23.2-77.672c1.352-1.566,4.555-3.688,6.66-2.4,2.346,1.436,2.054,6.482,1.576,8.81a24.32,24.32,0,0,1-1.393,4.421q-.755,1.7-1.509,3.767a25.775,25.775,0,0,1-6.288-6.4C70.86,18.885,71.437,15.877,73.523,13.462ZM68.016,25.406a9.869,9.869,0,0,1,4.744,7.708,4.5,4.5,0,0,1-.923,3.288,2.626,2.626,0,0,1-1.784.828A5.659,5.659,0,0,0,69.8,30.2a5.283,5.283,0,0,0-4.009-2.148c-3.884-.148-6.429,2.928-6.429,6.67a6.83,6.83,0,0,1-1.027-1.986c-.852-2.5-.557-5.593,1.327-7.214C61.816,23.664,65.767,24.066,68.016,25.406ZM37.578,15.261c.276-.589,1.135-.879,1.706-1.076a37.439,37.439,0,0,1,9.767-1.377l.187-.005.187.005a37.439,37.439,0,0,1,9.767,1.377c.571.2,1.43.487,1.707,1.076a.985.985,0,0,1,0,.848,18.515,18.515,0,0,1-3.012,2.822c-3.516,2.878-5.765,5.174-6.946,9.808a12.625,12.625,0,0,0,.247,7.156c1.219,3.757,3.9,5.994,5.2,9.391a6.632,6.632,0,0,1,.183,5.088c-1.167,2.465-4.654,2.886-7.071,2.934l-.266,0-.266,0c-2.416-.048-5.9-.469-7.071-2.934a6.633,6.633,0,0,1,.183-5.088c1.3-3.4,3.981-5.634,5.2-9.391a12.625,12.625,0,0,0,.247-7.156c-1.181-4.634-3.43-6.93-6.946-9.808a18.518,18.518,0,0,1-3.012-2.822A.984.984,0,0,1,37.578,15.261ZM30.461,25.406c2.249-1.34,6.2-1.742,8.354.112,1.884,1.621,2.179,4.712,1.327,7.214a6.83,6.83,0,0,1-1.027,1.986c0-3.742-2.545-6.818-6.429-6.67A5.283,5.283,0,0,0,28.677,30.2a5.659,5.659,0,0,0-.252,7.033,2.627,2.627,0,0,1-1.784-.828,4.5,4.5,0,0,1-.923-3.288A9.87,9.87,0,0,1,30.461,25.406ZM18.295,11.063c2.1-1.289,5.308.834,6.66,2.4,2.086,2.415,2.663,5.423.956,8.194a25.775,25.775,0,0,1-6.288,6.4q-.755-2.072-1.509-3.767a24.309,24.309,0,0,1-1.394-4.421C16.241,17.545,15.949,12.5,18.295,11.063ZM93.4,51.494c-1.516,4.227-6.29,11.015-10.088,15.66A54.514,54.514,0,0,1,69.062,79.6c-5.415,3.278-13.317,6.508-19.824,6.708-6.507-.2-14.408-3.43-19.823-6.708A54.514,54.514,0,0,1,15.17,67.154c-3.8-4.646-8.571-11.433-10.088-15.66a7.957,7.957,0,0,1-.048-5.347,16.826,16.826,0,0,1,6.1-7.667,4.147,4.147,0,0,1,2.656-1c2.149.344,3.36,3.342,4.2,5.025-.572.571-1.212,1.026-1.791,1.658-3.674,4-3.122,9.055-.85,13.916,3.07,6.44,9.141,12.855,14.463,17.458-3.733-8.906-2.3-20.321,6.791-25.5-.8,11.074,24.411,12.959,25.278,0,9.095,5.176,10.524,16.59,6.791,25.5,5.322-4.6,11.392-11.019,14.463-17.458,2.272-4.862,2.823-9.918-.85-13.916-.579-.632-1.218-1.087-1.791-1.658.843-1.683,2.053-4.681,4.2-5.025a4.147,4.147,0,0,1,2.656,1,16.827,16.827,0,0,1,6.1,7.667A7.957,7.957,0,0,1,93.4,51.494Z" transform="translate(0 -0.055)" fill="#4c4d4e" fill-rule="evenodd"/><path d="M57.884,66.249a8.806,8.806,0,0,1-3.193.421,4.468,4.468,0,0,1-4.022-2.422c-.148-.293-.454-.3-1.266-.3l-.055,0-.055,0-.055,0-.055,0c-.812,0-1.118,0-1.266.3A4.468,4.468,0,0,1,43.9,66.671a8.806,8.806,0,0,1-3.193-.421c-3.65-1.133-3.822-1.626-7.908-1.578,3.781,8.686,9.69,15.163,16.4,15.11h.2c6.708.053,12.618-6.423,16.4-15.11C61.706,64.623,61.535,65.116,57.884,66.249ZM48.3,78.094a9.888,9.888,0,0,1-2.078-.471,5.218,5.218,0,0,1-1.753-.779A2.448,2.448,0,0,1,43.8,76a44.53,44.53,0,0,1-2.417-7.078A10.362,10.362,0,0,0,48.3,67.29ZM54.682,76a2.45,2.45,0,0,1-.669.845,5.219,5.219,0,0,1-1.753.779,9.889,9.889,0,0,1-2.078.471V67.29A10.361,10.361,0,0,0,57.1,68.922,44.537,44.537,0,0,1,54.682,76Z" transform="translate(0 -0.055)" fill="#4c4d4e" fill-rule="evenodd"/></svg>